<?xml version="1.0" encoding="UTF-8" standalone="no"?>
<svg
   xmlns:dc="http://purl.org/dc/elements/1.1/"
   xmlns:cc="http://creativecommons.org/ns#"
   xmlns:rdf="http://www.w3.org/1999/02/22-rdf-syntax-ns#"
   xmlns:svg="http://www.w3.org/2000/svg"
   xmlns="http://www.w3.org/2000/svg"
   xmlns:sodipodi="http://sodipodi.sourceforge.net/DTD/sodipodi-0.dtd"
   xmlns:inkscape="http://www.inkscape.org/namespaces/inkscape"
   version="1.1"
   viewBox="0 0 864.06824 226.57481"
   stroke-miterlimit="10"
   id="svg173"
   sodipodi:docname="autonomy-stack.svg"
   inkscape:version="0.92.3 (2405546, 2018-03-11)"
   width="864.06824"
   height="226.57481"
   style="fill:none;stroke:none;stroke-linecap:square;stroke-miterlimit:10">
  <metadata
     id="metadata179">
    <rdf:RDF>
      <cc:Work
         rdf:about="">
        <dc:format>image/svg+xml</dc:format>
        <dc:type
           rdf:resource="http://purl.org/dc/dcmitype/StillImage" />
        <dc:title />
      </cc:Work>
    </rdf:RDF>
  </metadata>
  <defs
     id="defs177" />
  <sodipodi:namedview
     pagecolor="#ffffff"
     bordercolor="#666666"
     borderopacity="1"
     objecttolerance="10"
     gridtolerance="10"
     guidetolerance="10"
     inkscape:pageopacity="0"
     inkscape:pageshadow="2"
     inkscape:window-width="2493"
     inkscape:window-height="1385"
     id="namedview175"
     showgrid="false"
     inkscape:zoom="2.1566757"
     inkscape:cx="366.18289"
     inkscape:cy="145.45285"
     inkscape:window-x="67"
     inkscape:window-y="27"
     inkscape:window-maximized="1"
     inkscape:current-layer="svg173"
     fit-margin-top="0"
     fit-margin-left="0"
     fit-margin-right="0"
     fit-margin-bottom="0" />
  <clipPath
     id="g74bd66e2a5_1_0.0">
    <path
       d="M 0,0 H 960 V 540 H 0 Z"
       id="path2"
       inkscape:connector-curvature="0"
       style="clip-rule:nonzero" />
  </clipPath>
  <path
     style="fill:#000000;fill-opacity:0;fill-rule:evenodd"
     inkscape:connector-curvature="0"
     id="path7"
     d="M 0.5,0.5 H 121.28741 V 226.07481 H 0.5 Z" />
  <path
     style="fill-rule:evenodd;stroke:#6e7a94;stroke-width:1;stroke-linecap:butt;stroke-linejoin:round"
     inkscape:connector-curvature="0"
     id="path9"
     d="M 0.5,0.5 H 121.28741 V 226.07481 H 0.5 Z" />
  <path
     style="fill:#000000;fill-opacity:0;fill-rule:evenodd"
     inkscape:connector-curvature="0"
     id="path11"
     d="M 146.22967,0.5 H 720.15093 V 226.07481 H 146.22967 Z" />
  <path
     style="fill-rule:evenodd;stroke:#6e7a94;stroke-width:1;stroke-linecap:butt;stroke-linejoin:round"
     inkscape:connector-curvature="0"
     id="path13"
     d="M 146.22967,0.5 H 720.15093 V 226.07481 H 146.22967 Z" />
  <path
     style="fill:#26a6a6;fill-rule:evenodd;stroke:none"
     inkscape:connector-curvature="0"
     id="path25"
     d="M 163.69685,84.37927 H 327.06694 V 180.1903 H 163.69685 Z" />
  <path
     style="fill:#26a6a6;fill-rule:evenodd;stroke:none"
     inkscape:connector-curvature="0"
     id="path29"
     d="M 353.50087,84.37927 H 516.87096 V 180.1903 H 353.50087 Z" />
  <path
     style="fill:#26a6a6;fill-rule:evenodd;stroke:none"
     inkscape:connector-curvature="0"
     id="path33"
     d="M 543.30483,84.37927 H 706.67495 V 180.1903 H 543.30483 Z" />
  <path
     style="fill:#000000;fill-opacity:0;fill-rule:evenodd"
     inkscape:connector-curvature="0"
     id="path37"
     d="M 146.22967,0.5 H 279.48951 V 44.84645 H 146.22967 Z" />
  <path
     style="fill:#6e7a94;fill-rule:nonzero"
     inkscape:connector-curvature="0"
     id="path39"
     d="m 158.47967,18.985 -0.5,1.60938 h 3.15625 l -0.5,-1.60938 q -0.28125,-0.875 -0.54688,-1.75 -0.25,-0.875 -0.5,-1.78125 h -0.0781 q -0.23438,0.90625 -0.5,1.78125 -0.25,0.875 -0.53125,1.75 z m -3.20313,5.875 3.54688,-10.5 h 1.51562 l 3.54688,10.5 h -1.42188 l -1,-3.20312 h -3.8125 L 156.63592,24.86 Z m 12.13929,0.1875 q -1.23438,0 -1.8125,-0.76562 -0.5625,-0.76563 -0.5625,-2.26563 v -4.9375 h 1.32812 v 4.75 q 0,1.10938 0.34375,1.60938 0.34375,0.48437 1.10938,0.48437 0.60937,0 1.0625,-0.3125 0.46875,-0.3125 1.03125,-1 v -5.53125 h 1.3125 V 24.86 h -1.09375 l -0.10938,-1.21875 h -0.0469 q -0.54688,0.64063 -1.14063,1.03125 -0.59375,0.375 -1.42187,0.375 z m 8.89152,0 q -0.625,0 -1.0625,-0.1875 -0.42187,-0.1875 -0.6875,-0.51562 -0.25,-0.34375 -0.375,-0.82813 -0.10937,-0.48437 -0.10937,-1.0625 v -4.29687 h -1.14063 v -1 l 1.20313,-0.0781 0.17187,-2.17187 h 1.09375 v 2.17187 h 2.09375 v 1.07813 h -2.09375 v 4.3125 q 0,0.73437 0.26563,1.125 0.26562,0.39062 0.9375,0.39062 0.20312,0 0.4375,-0.0625 0.25,-0.0781 0.4375,-0.15625 l 0.26562,1 q -0.32812,0.10938 -0.70312,0.1875 -0.375,0.0937 -0.73438,0.0937 z m 5.76213,0 q -0.73437,0 -1.39062,-0.26562 -0.64063,-0.28125 -1.14063,-0.79688 -0.48437,-0.51562 -0.78125,-1.26562 -0.29687,-0.76563 -0.29687,-1.73438 0,-0.96875 0.29687,-1.73437 0.29688,-0.76563 0.78125,-1.28125 0.5,-0.53125 1.14063,-0.79688 0.65625,-0.28125 1.39062,-0.28125 0.71875,0 1.35938,0.28125 0.65625,0.26563 1.14062,0.79688 0.5,0.51562 0.79688,1.28125 0.29687,0.76562 0.29687,1.73437 0,0.96875 -0.29687,1.73438 -0.29688,0.75 -0.79688,1.26562 -0.48437,0.51563 -1.14062,0.79688 -0.64063,0.26562 -1.35938,0.26562 z m 0,-1.07812 q 0.48438,0 0.89063,-0.21875 0.42187,-0.21875 0.71875,-0.60938 0.29687,-0.39062 0.45312,-0.9375 0.17188,-0.54687 0.17188,-1.21875 0,-0.67187 -0.17188,-1.21875 -0.15625,-0.54687 -0.45312,-0.95312 -0.29688,-0.40625 -0.71875,-0.60938 -0.40625,-0.21875 -0.89063,-0.21875 -0.5,0 -0.92187,0.21875 -0.40625,0.20313 -0.70313,0.60938 -0.29687,0.40625 -0.46875,0.95312 -0.15625,0.54688 -0.15625,1.21875 0,0.67188 0.15625,1.21875 0.17188,0.54688 0.46875,0.9375 0.29688,0.39063 0.70313,0.60938 0.42187,0.21875 0.92187,0.21875 z m 5.64076,0.89062 v -7.78125 h 1.09375 l 0.10938,1.125 h 0.0469 q 0.5625,-0.5625 1.17188,-0.9375 0.625,-0.375 1.4375,-0.375 1.23437,0 1.79687,0.76563 0.5625,0.76562 0.5625,2.28125 V 24.86 h -1.3125 v -4.75 q 0,-1.10937 -0.35937,-1.59375 -0.34375,-0.48437 -1.10938,-0.48437 -0.60937,0 -1.07812,0.3125 -0.45313,0.29687 -1.04688,0.89062 v 5.625 z m 11.78327,0.1875 q -0.73438,0 -1.39063,-0.26562 -0.64062,-0.28125 -1.14062,-0.79688 -0.48438,-0.51562 -0.78125,-1.26562 -0.29688,-0.76563 -0.29688,-1.73438 0,-0.96875 0.29688,-1.73437 0.29687,-0.76563 0.78125,-1.28125 0.5,-0.53125 1.14062,-0.79688 0.65625,-0.28125 1.39063,-0.28125 0.71875,0 1.35937,0.28125 0.65625,0.26563 1.14063,0.79688 0.5,0.51562 0.79687,1.28125 0.29688,0.76562 0.29688,1.73437 0,0.96875 -0.29688,1.73438 -0.29687,0.75 -0.79687,1.26562 -0.48438,0.51563 -1.14063,0.79688 -0.64062,0.26562 -1.35937,0.26562 z m 0,-1.07812 q 0.48437,0 0.89062,-0.21875 0.42188,-0.21875 0.71875,-0.60938 0.29688,-0.39062 0.45313,-0.9375 0.17187,-0.54687 0.17187,-1.21875 0,-0.67187 -0.17187,-1.21875 -0.15625,-0.54687 -0.45313,-0.95312 -0.29687,-0.40625 -0.71875,-0.60938 -0.40625,-0.21875 -0.89062,-0.21875 -0.5,0 -0.92188,0.21875 -0.40625,0.20313 -0.70312,0.60938 -0.29688,0.40625 -0.46875,0.95312 -0.15625,0.54688 -0.15625,1.21875 0,0.67188 0.15625,1.21875 0.17187,0.54688 0.46875,0.9375 0.29687,0.39063 0.70312,0.60938 0.42188,0.21875 0.92188,0.21875 z m 5.64075,0.89062 v -7.78125 h 1.09375 l 0.10937,1.125 h 0.0469 q 0.51562,-0.5625 1.10937,-0.9375 0.59375,-0.375 1.29688,-0.375 0.90625,0 1.40625,0.39063 0.5,0.39062 0.75,1.09375 0.60937,-0.67188 1.21875,-1.07813 0.60937,-0.40625 1.34375,-0.40625 1.1875,0 1.76562,0.76563 0.59375,0.76562 0.59375,2.28125 V 24.86 h -1.3125 v -4.75 q 0,-1.10937 -0.35937,-1.59375 -0.34375,-0.48437 -1.07813,-0.48437 -0.875,0 -1.95312,1.20312 v 5.625 h -1.3125 v -4.75 q 0,-1.10937 -0.35938,-1.59375 -0.34375,-0.48437 -1.09375,-0.48437 -0.875,0 -1.95312,1.20312 v 5.625 z m 13.38903,3.34375 q -0.26562,0 -0.5,-0.0469 -0.21875,-0.0312 -0.40625,-0.10938 l 0.25,-1.04687 q 0.125,0.0312 0.28125,0.0625 0.17188,0.0469 0.3125,0.0469 0.67188,0 1.09375,-0.46875 0.42188,-0.46875 0.67188,-1.1875 l 0.17187,-0.57812 -3.125,-7.79688 h 1.35938 l 1.59375,4.3125 q 0.17187,0.51563 0.375,1.07813 0.20312,0.5625 0.375,1.10937 h 0.0625 q 0.17187,-0.53125 0.32812,-1.09375 0.17188,-0.57812 0.32813,-1.09375 l 1.39062,-4.3125 h 1.28125 l -2.92187,8.42188 q -0.21875,0.57812 -0.48438,1.0625 -0.25,0.5 -0.60937,0.85937 -0.34375,0.35938 -0.79688,0.5625 -0.4375,0.21875 -1.03125,0.21875 z m 12.57828,-3.15625 q -0.82812,0 -1.57812,-0.29687 -0.75,-0.3125 -1.3125,-0.76563 l 0.65625,-0.89062 q 0.5,0.42187 1.03125,0.6875 0.54687,0.25 1.25,0.25 0.76562,0 1.14062,-0.34375 0.39063,-0.35938 0.39063,-0.875 0,-0.3125 -0.15625,-0.53125 -0.15625,-0.21875 -0.40625,-0.39063 -0.25,-0.17187 -0.57813,-0.29687 -0.3125,-0.125 -0.625,-0.25 -0.42187,-0.14063 -0.84375,-0.32813 -0.40625,-0.1875 -0.73437,-0.45312 -0.32813,-0.26563 -0.54688,-0.60938 -0.20312,-0.35937 -0.20312,-0.85937 0,-0.45313 0.1875,-0.85938 0.1875,-0.42187 0.53125,-0.70312 0.34375,-0.29688 0.82812,-0.46875 0.5,-0.17188 1.125,-0.17188 0.73438,0 1.34375,0.26563 0.625,0.25 1.07813,0.60937 l -0.625,0.84375 q -0.40625,-0.3125 -0.84375,-0.5 -0.42188,-0.1875 -0.9375,-0.1875 -0.73438,0 -1.07813,0.34375 -0.34375,0.32813 -0.34375,0.76563 0,0.28125 0.14063,0.48437 0.15625,0.1875 0.39062,0.34375 0.23438,0.15625 0.54688,0.28125 0.3125,0.10938 0.65625,0.23438 0.40625,0.17187 0.82812,0.34375 0.4375,0.17187 0.76563,0.4375 0.34375,0.26562 0.54687,0.65625 0.21875,0.375 0.21875,0.92187 0,0.48438 -0.1875,0.90625 -0.17187,0.40625 -0.53125,0.73438 -0.35937,0.3125 -0.90625,0.48437 -0.53125,0.1875 -1.21875,0.1875 z m 6.80588,0 q -0.625,0 -1.0625,-0.1875 -0.42188,-0.1875 -0.6875,-0.51562 -0.25,-0.34375 -0.375,-0.82813 -0.10938,-0.48437 -0.10938,-1.0625 v -4.29687 h -1.14062 v -1 l 1.20312,-0.0781 0.17188,-2.17187 h 1.09375 v 2.17187 h 2.09375 v 1.07813 h -2.09375 v 4.3125 q 0,0.73437 0.26562,1.125 0.26563,0.39062 0.9375,0.39062 0.20313,0 0.4375,-0.0625 0.25,-0.0781 0.4375,-0.15625 l 0.26563,1 q -0.32813,0.10938 -0.70313,0.1875 -0.375,0.0937 -0.73437,0.0937 z m 4.41574,0 q -0.98437,0 -1.64062,-0.5625 -0.64063,-0.57812 -0.64063,-1.64062 0,-1.28125 1.14063,-1.95313 1.14062,-0.6875 3.625,-0.95312 0,-0.375 -0.0781,-0.71875 -0.0625,-0.35938 -0.23437,-0.625 -0.17188,-0.28125 -0.48438,-0.4375 -0.3125,-0.17188 -0.79687,-0.17188 -0.67188,0 -1.26563,0.25 -0.59375,0.25 -1.04687,0.57813 l -0.51563,-0.90625 q 0.54688,-0.35938 1.32813,-0.6875 0.78125,-0.32813 1.71875,-0.32813 1.42187,0 2.0625,0.875 0.64062,0.875 0.64062,2.32813 V 24.86 h -1.07812 l -0.10938,-0.92187 h -0.0469 q -0.5625,0.45312 -1.20313,0.78125 -0.64062,0.32812 -1.375,0.32812 z m 0.375,-1.04687 q 0.5625,0 1.0625,-0.26563 0.5,-0.26562 1.04688,-0.78125 V 20.7975 q -0.96875,0.125 -1.64063,0.3125 -0.65625,0.17188 -1.0625,0.40625 -0.40625,0.23438 -0.59375,0.54688 -0.1875,0.3125 -0.1875,0.6875 0,0.67187 0.39063,0.96875 0.40625,0.28125 0.98437,0.28125 z m 8.97028,1.04687 q -0.78125,0 -1.45313,-0.26562 -0.67187,-0.28125 -1.15625,-0.79688 -0.48437,-0.51562 -0.76562,-1.26562 -0.28125,-0.76563 -0.28125,-1.73438 0,-0.96875 0.29687,-1.73437 0.3125,-0.76563 0.82813,-1.28125 0.51562,-0.53125 1.1875,-0.79688 0.6875,-0.28125 1.4375,-0.28125 0.76562,0 1.3125,0.28125 0.54687,0.26563 0.95312,0.625 l -0.67187,0.875 q -0.32813,-0.3125 -0.71875,-0.5 -0.375,-0.1875 -0.82813,-0.1875 -0.53125,0 -0.98437,0.21875 -0.4375,0.20313 -0.76563,0.60938 -0.3125,0.40625 -0.5,0.95312 -0.1875,0.54688 -0.1875,1.21875 0,0.67188 0.17188,1.21875 0.1875,0.54688 0.5,0.9375 0.3125,0.39063 0.75,0.60938 0.45312,0.21875 0.98437,0.21875 0.54688,0 1,-0.23438 0.45313,-0.23437 0.8125,-0.5625 l 0.57813,0.89063 q -0.51563,0.45312 -1.15625,0.71875 -0.64063,0.26562 -1.34375,0.26562 z M 255.88636,24.86 V 13.46938 h 1.29688 v 7.70312 h 0.0469 l 3.3125,-4.09375 h 1.45313 l -2.60938,3.125 2.96875,4.65625 h -1.4375 l -2.28125,-3.75 -1.45312,1.70313 V 24.86 Z" />
  <path
     style="fill:#000000;fill-opacity:0;fill-rule:evenodd"
     inkscape:connector-curvature="0"
     id="path41"
     d="M 168.53282,112.82547 H 322.2336 v 38.4252 H 168.53282 Z" />
  <path
     style="fill:#ffffff;fill-rule:nonzero"
     inkscape:connector-curvature="0"
     id="path43"
     d="m 203.56401,139.74547 v -12.20313 h 3.84375 q 1.01562,0 1.875,0.1875 0.875,0.1875 1.5,0.64063 0.64062,0.4375 0.98437,1.15625 0.35938,0.71875 0.35938,1.78125 0,1.01562 -0.35938,1.76562 -0.34375,0.73438 -0.96875,1.23438 -0.625,0.5 -1.48437,0.73437 -0.84375,0.21875 -1.82813,0.21875 h -1.75 v 4.48438 z m 2.17187,-6.21875 h 1.57813 q 2.6875,0 2.6875,-2.21875 0,-1.15625 -0.70313,-1.59375 -0.70312,-0.4375 -2.0625,-0.4375 h -1.5 z m 12.0098,6.4375 q -0.95312,0 -1.78125,-0.3125 -0.8125,-0.32813 -1.4375,-0.9375 -0.60937,-0.625 -0.95312,-1.51563 -0.34375,-0.89062 -0.34375,-2.03125 0,-1.10937 0.34375,-2 0.35937,-0.90625 0.95312,-1.51562 0.59375,-0.625 1.34375,-0.95313 0.76563,-0.34375 1.57813,-0.34375 0.92187,0 1.625,0.32813 0.71875,0.3125 1.1875,0.89062 0.48437,0.57813 0.71875,1.39063 0.25,0.79687 0.25,1.75 0,0.3125 -0.0312,0.59375 -0.0156,0.28125 -0.0625,0.4375 h -5.8125 q 0.14062,1.23437 0.85937,1.90625 0.71875,0.65625 1.84375,0.65625 0.59375,0 1.10938,-0.17188 0.51562,-0.1875 1.01562,-0.5 l 0.71875,1.34375 q -0.64062,0.4375 -1.45312,0.71875 -0.79688,0.26563 -1.67188,0.26563 z m -2.45312,-5.67188 h 4.07812 q 0,-1.0625 -0.46875,-1.65625 -0.45312,-0.60937 -1.40625,-0.60937 -0.8125,0 -1.4375,0.57812 -0.60937,0.57813 -0.76562,1.6875 z m 7.98996,5.45313 v -9.15625 h 1.78125 l 0.14062,1.625 h 0.0781 q 0.48437,-0.90625 1.17187,-1.375 0.6875,-0.48438 1.42188,-0.48438 0.65625,0 1.04687,0.1875 l -0.375,1.875 q -0.25,-0.0781 -0.45312,-0.10937 -0.20313,-0.0469 -0.5,-0.0469 -0.54688,0 -1.14063,0.42188 -0.59375,0.42187 -1.03125,1.46875 v 5.59375 z m 10.60025,0.21875 q -0.9375,0 -1.75,-0.3125 -0.8125,-0.3125 -1.40625,-0.92188 -0.59375,-0.625 -0.9375,-1.51562 -0.32813,-0.90625 -0.32813,-2.04688 0,-1.125 0.375,-2.01562 0.375,-0.90625 1,-1.51563 0.64063,-0.625 1.46875,-0.95312 0.82813,-0.32813 1.75,-0.32813 0.89063,0 1.53125,0.3125 0.64063,0.29688 1.15625,0.71875 l -1.04687,1.40625 q -0.375,-0.32812 -0.75,-0.5 -0.35938,-0.17187 -0.78125,-0.17187 -1.125,0 -1.8125,0.82812 -0.6875,0.82813 -0.6875,2.21875 0,1.39063 0.67187,2.21875 0.6875,0.82813 1.76563,0.82813 0.54687,0 1.01562,-0.23438 0.48438,-0.23437 0.875,-0.54687 l 0.875,1.42187 q -0.65625,0.5625 -1.4375,0.84375 -0.76562,0.26563 -1.54687,0.26563 z m 8.26495,0 q -0.95313,0 -1.78125,-0.3125 -0.8125,-0.32813 -1.4375,-0.9375 -0.60938,-0.625 -0.95313,-1.51563 -0.34375,-0.89062 -0.34375,-2.03125 0,-1.10937 0.34375,-2 0.35938,-0.90625 0.95313,-1.51562 0.59375,-0.625 1.34375,-0.95313 0.76562,-0.34375 1.57812,-0.34375 0.92188,0 1.625,0.32813 0.71875,0.3125 1.1875,0.89062 0.48438,0.57813 0.71875,1.39063 0.25,0.79687 0.25,1.75 0,0.3125 -0.0312,0.59375 -0.0156,0.28125 -0.0625,0.4375 h -5.8125 q 0.14063,1.23437 0.85938,1.90625 0.71875,0.65625 1.84375,0.65625 0.59375,0 1.10937,-0.17188 0.51563,-0.1875 1.01563,-0.5 l 0.71875,1.34375 q -0.64063,0.4375 -1.45313,0.71875 -0.79687,0.26563 -1.67187,0.26563 z m -2.45313,-5.67188 h 4.07813 q 0,-1.0625 -0.46875,-1.65625 -0.45313,-0.60937 -1.40625,-0.60937 -0.8125,0 -1.4375,0.57812 -0.60938,0.57813 -0.76563,1.6875 z m 7.98996,9.07813 v -12.78125 h 1.78125 l 0.14063,0.96875 h 0.0781 q 0.57813,-0.48438 1.28125,-0.84375 0.71875,-0.35938 1.48438,-0.35938 0.85937,0 1.51562,0.32813 0.65625,0.32812 1.125,0.95312 0.46875,0.60938 0.70313,1.46875 0.25,0.85938 0.25,1.92188 0,1.17187 -0.32813,2.09375 -0.32812,0.92187 -0.875,1.54687 -0.53125,0.625 -1.25,0.96875 -0.70312,0.32813 -1.46875,0.32813 -0.59375,0 -1.1875,-0.25 -0.59375,-0.26563 -1.15625,-0.75 l 0.0469,1.53125 v 2.875 z m 4,-5.17188 q 0.90625,0 1.51563,-0.79687 0.625,-0.79688 0.625,-2.35938 0,-1.375 -0.46875,-2.14062 -0.46875,-0.76563 -1.51563,-0.76563 -0.96875,0 -2.01562,1.03125 v 4.26563 q 0.51562,0.42187 0.96875,0.59375 0.46875,0.17187 0.89062,0.17187 z m 9.34586,1.76563 q -0.8125,0 -1.35937,-0.23438 -0.54688,-0.25 -0.89063,-0.6875 -0.34375,-0.4375 -0.51562,-1.03125 -0.15625,-0.60937 -0.15625,-1.35937 v -4.375 h -1.29688 v -1.59375 l 1.42188,-0.0937 0.25,-2.5 h 1.79687 v 2.5 h 2.32813 v 1.6875 h -2.32813 v 4.375 q 0,1.59375 1.28125,1.59375 0.25,0 0.5,-0.0469 0.25,-0.0625 0.45313,-0.15625 l 0.375,1.59375 q -0.375,0.125 -0.85938,0.21875 -0.46875,0.10938 -1,0.10938 z m 3.50052,-0.21875 v -9.15625 h 2.14062 v 9.15625 z m 1.07812,-10.76563 q -0.57812,0 -0.95312,-0.32812 -0.35938,-0.34375 -0.35938,-0.89063 0,-0.53125 0.35938,-0.875 0.375,-0.34375 0.95312,-0.34375 0.57813,0 0.95313,0.34375 0.375,0.34375 0.375,0.875 0,0.54688 -0.375,0.89063 -0.375,0.32812 -0.95313,0.32812 z m 7.55982,10.98438 q -0.85938,0 -1.64063,-0.3125 -0.78125,-0.3125 -1.39062,-0.92188 -0.60938,-0.625 -0.96875,-1.51562 -0.34375,-0.90625 -0.34375,-2.04688 0,-1.125 0.34375,-2.01562 0.35937,-0.90625 0.96875,-1.51563 0.60937,-0.625 1.39062,-0.95312 0.78125,-0.32813 1.64063,-0.32813 0.85937,0 1.65625,0.32813 0.79687,0.32812 1.39062,0.95312 0.59375,0.60938 0.95313,1.51563 0.375,0.89062 0.375,2.01562 0,1.14063 -0.375,2.04688 -0.35938,0.89062 -0.95313,1.51562 -0.59375,0.60938 -1.39062,0.92188 -0.79688,0.3125 -1.65625,0.3125 z m 0,-1.75 q 1.01562,0 1.59375,-0.82813 0.57812,-0.82812 0.57812,-2.21875 0,-1.39062 -0.57812,-2.21875 -0.57813,-0.82812 -1.59375,-0.82812 -1,0 -1.57813,0.82812 -0.5625,0.82813 -0.5625,2.21875 0,1.39063 0.5625,2.21875 0.57813,0.82813 1.57813,0.82813 z m 6.49228,1.53125 v -9.15625 h 1.78125 l 0.14062,1.23437 h 0.0781 q 0.60937,-0.60937 1.32812,-1.03125 0.71875,-0.4375 1.67188,-0.4375 1.46875,0 2.14062,0.95313 0.67188,0.9375 0.67188,2.6875 v 5.75 h -2.14063 v -5.46875 q 0,-1.14063 -0.34375,-1.59375 -0.32812,-0.46875 -1.09375,-0.46875 -0.59375,0 -1.0625,0.29687 -0.45312,0.28125 -1.03125,0.82813 v 6.40625 z" />
  <path
     style="fill:#000000;fill-opacity:0;fill-rule:evenodd"
     inkscape:connector-curvature="0"
     id="path45"
     d="m 358.3307,112.82547 h 153.70078 v 38.4252 H 358.3307 Z" />
  <path
     style="fill:#ffffff;fill-rule:nonzero"
     inkscape:connector-curvature="0"
     id="path47"
     d="m 400.99193,139.74547 v -12.20313 h 3.84375 q 1.01563,0 1.875,0.1875 0.875,0.1875 1.5,0.64063 0.64063,0.4375 0.98438,1.15625 0.35937,0.71875 0.35937,1.78125 0,1.01562 -0.35937,1.76562 -0.34375,0.73438 -0.96875,1.23438 -0.625,0.5 -1.48438,0.73437 -0.84375,0.21875 -1.82812,0.21875 h -1.75 v 4.48438 z m 2.17188,-6.21875 h 1.57812 q 2.6875,0 2.6875,-2.21875 0,-1.15625 -0.70312,-1.59375 -0.70313,-0.4375 -2.0625,-0.4375 h -1.5 z m 10.59231,6.4375 q -1.15625,0 -1.625,-0.6875 -0.46875,-0.6875 -0.46875,-1.875 v -10.82813 h 2.14063 v 10.9375 q 0,0.39063 0.15625,0.54688 0.15625,0.15625 0.3125,0.15625 0.0781,0 0.14062,0 0.0625,0 0.20313,-0.0312 l 0.28125,1.59375 q -0.4375,0.1875 -1.14063,0.1875 z m 5.18085,0 q -1.20313,0 -1.95313,-0.73438 -0.75,-0.73437 -0.75,-1.95312 0,-0.71875 0.3125,-1.28125 0.3125,-0.57813 0.96875,-0.98438 0.65625,-0.42187 1.67188,-0.6875 1.01562,-0.28125 2.4375,-0.4375 -0.0156,-0.35937 -0.10938,-0.67187 -0.0781,-0.32813 -0.28125,-0.57813 -0.1875,-0.26562 -0.5,-0.40625 -0.3125,-0.14062 -0.78125,-0.14062 -0.67187,0 -1.32812,0.26562 -0.64063,0.26563 -1.25,0.64063 l -0.78125,-1.4375 q 0.76562,-0.48438 1.71875,-0.84375 0.95312,-0.35938 2.04687,-0.35938 1.71875,0 2.5625,1.03125 0.84375,1.01563 0.84375,2.9375 v 5.42188 h -1.76562 l -0.14063,-1 h -0.0781 q -0.625,0.51562 -1.32813,0.875 -0.6875,0.34375 -1.51562,0.34375 z m 0.6875,-1.67188 q 0.5625,0 1.01562,-0.26562 0.46875,-0.26563 0.98438,-0.75 v -2.04688 q -0.9375,0.10938 -1.57813,0.29688 -0.625,0.1875 -1.01562,0.42187 -0.39063,0.23438 -0.5625,0.53125 -0.15625,0.29688 -0.15625,0.64063 0,0.60937 0.35937,0.89062 0.375,0.28125 0.95313,0.28125 z m 6.72037,1.45313 v -9.15625 h 1.78125 l 0.14062,1.23437 h 0.0781 q 0.60937,-0.60937 1.32812,-1.03125 0.71875,-0.4375 1.67188,-0.4375 1.46875,0 2.14062,0.95313 0.67188,0.9375 0.67188,2.6875 v 5.75 h -2.14063 v -5.46875 q 0,-1.14063 -0.34375,-1.59375 -0.32812,-0.46875 -1.09375,-0.46875 -0.59375,0 -1.0625,0.29687 -0.45312,0.28125 -1.03125,0.82813 v 6.40625 z m 10.44751,0 v -9.15625 h 1.78125 l 0.14062,1.23437 h 0.0781 q 0.60937,-0.60937 1.32812,-1.03125 0.71875,-0.4375 1.67188,-0.4375 1.46875,0 2.14062,0.95313 0.67188,0.9375 0.67188,2.6875 v 5.75 h -2.14063 v -5.46875 q 0,-1.14063 -0.34375,-1.59375 -0.32812,-0.46875 -1.09375,-0.46875 -0.59375,0 -1.0625,0.29687 -0.45312,0.28125 -1.03125,0.82813 v 6.40625 z m 10.44751,0 v -9.15625 h 2.14062 v 9.15625 z m 1.07812,-10.76563 q -0.57812,0 -0.95312,-0.32812 -0.35938,-0.34375 -0.35938,-0.89063 0,-0.53125 0.35938,-0.875 0.375,-0.34375 0.95312,-0.34375 0.57813,0 0.95313,0.34375 0.375,0.34375 0.375,0.875 0,0.54688 -0.375,0.89063 -0.375,0.32812 -0.95313,0.32812 z m 3.80981,10.76563 v -9.15625 h 1.78125 l 0.14063,1.23437 h 0.0781 q 0.60938,-0.60937 1.32813,-1.03125 0.71875,-0.4375 1.67187,-0.4375 1.46875,0 2.14063,0.95313 0.67187,0.9375 0.67187,2.6875 v 5.75 h -2.14062 v -5.46875 q 0,-1.14063 -0.34375,-1.59375 -0.32813,-0.46875 -1.09375,-0.46875 -0.59375,0 -1.0625,0.29687 -0.45313,0.28125 -1.03125,0.82813 v 6.40625 z m 13.63501,4.04687 q -0.8125,0 -1.51562,-0.15625 -0.70313,-0.14062 -1.20313,-0.4375 -0.5,-0.29687 -0.79687,-0.75 -0.28125,-0.45312 -0.28125,-1.04687 0,-0.57813 0.32812,-1.07813 0.34375,-0.48437 0.96875,-0.875 v -0.0781 q -0.34375,-0.21875 -0.57812,-0.59375 -0.23438,-0.375 -0.23438,-0.9375 0,-0.53125 0.29688,-0.96875 0.3125,-0.45313 0.70312,-0.71875 v -0.0781 q -0.46875,-0.35937 -0.82812,-0.98437 -0.35938,-0.625 -0.35938,-1.4375 0,-0.79688 0.29688,-1.40625 0.29687,-0.60938 0.78125,-1.03125 0.5,-0.42188 1.15625,-0.64063 0.65625,-0.21875 1.39062,-0.21875 0.35938,0 0.70313,0.0781 0.35937,0.0625 0.625,0.15625 h 3.29687 v 1.57812 h -1.6875 q 0.21875,0.26563 0.375,0.67188 0.15625,0.39062 0.15625,0.875 0,0.76562 -0.28125,1.34375 -0.26562,0.57812 -0.73437,0.96875 -0.46875,0.39062 -1.10938,0.60937 -0.625,0.20313 -1.34375,0.20313 -0.3125,0 -0.625,-0.0469 -0.3125,-0.0625 -0.625,-0.20312 -0.21875,0.1875 -0.34375,0.375 -0.10937,0.1875 -0.10937,0.5 0,0.39062 0.32812,0.625 0.32813,0.21875 1.15625,0.21875 h 1.625 q 1.67188,0 2.51563,0.53125 0.84375,0.53125 0.84375,1.73437 0,0.67188 -0.34375,1.26563 -0.34375,0.59375 -0.98438,1.01562 -0.625,0.4375 -1.53125,0.6875 -0.90625,0.25 -2.03125,0.25 z m 0.125,-8.29687 q 0.64063,0 1.10938,-0.46875 0.46875,-0.48438 0.46875,-1.375 0,-0.85938 -0.46875,-1.32813 -0.45313,-0.48437 -1.10938,-0.48437 -0.67187,0 -1.14062,0.46875 -0.46875,0.45312 -0.46875,1.34375 0,0.89062 0.46875,1.375 0.46875,0.46875 1.14062,0.46875 z m 0.21875,6.90625 q 1.10938,0 1.79688,-0.45313 0.6875,-0.4375 0.6875,-1.03125 0,-0.53125 -0.42188,-0.71875 -0.42187,-0.1875 -1.20312,-0.1875 h -1.25 q -0.75,0 -1.25,-0.14062 -0.71875,0.54687 -0.71875,1.21875 0,0.60937 0.625,0.95312 0.625,0.35938 1.73437,0.35938 z" />
  <path
     style="fill:#000000;fill-opacity:0;fill-rule:evenodd"
     inkscape:connector-curvature="0"
     id="path49"
     d="m 548.13517,112.82547 h 153.7008 v 38.4252 h -153.7008 z" />
  <path
     style="fill:#ffffff;fill-rule:nonzero"
     inkscape:connector-curvature="0"
     id="path51"
     d="m 597.26653,139.96422 q -1.15625,0 -2.17188,-0.40625 -1,-0.40625 -1.75,-1.20313 -0.73437,-0.8125 -1.15625,-1.98437 -0.42187,-1.17188 -0.42187,-2.6875 0,-1.5 0.4375,-2.67188 0.4375,-1.1875 1.1875,-2 0.75,-0.82812 1.76562,-1.25 1.01563,-0.4375 2.1875,-0.4375 1.15625,0 2.04688,0.46875 0.89062,0.45313 1.46875,1.07813 l -1.15625,1.39062 q -0.48438,-0.48437 -1.04688,-0.76562 -0.5625,-0.29688 -1.26562,-0.29688 -0.75,0 -1.375,0.3125 -0.625,0.3125 -1.07813,0.89063 -0.45312,0.5625 -0.70312,1.39062 -0.25,0.8125 -0.25,1.82813 0,2.09375 0.89062,3.28125 0.90625,1.1875 2.46875,1.1875 0.8125,0 1.4375,-0.34375 0.64063,-0.34375 1.17188,-0.90625 l 1.15625,1.35937 q -0.75,0.85938 -1.71875,1.3125 -0.95313,0.45313 -2.125,0.45313 z m 9.43353,0 q -0.85937,0 -1.64062,-0.3125 -0.78125,-0.3125 -1.39063,-0.92188 -0.60937,-0.625 -0.96875,-1.51562 -0.34375,-0.90625 -0.34375,-2.04688 0,-1.125 0.34375,-2.01562 0.35938,-0.90625 0.96875,-1.51563 0.60938,-0.625 1.39063,-0.95312 0.78125,-0.32813 1.64062,-0.32813 0.85938,0 1.65625,0.32813 0.79688,0.32812 1.39063,0.95312 0.59375,0.60938 0.95312,1.51563 0.375,0.89062 0.375,2.01562 0,1.14063 -0.375,2.04688 -0.35937,0.89062 -0.95312,1.51562 -0.59375,0.60938 -1.39063,0.92188 -0.79687,0.3125 -1.65625,0.3125 z m 0,-1.75 q 1.01563,0 1.59375,-0.82813 0.57813,-0.82812 0.57813,-2.21875 0,-1.39062 -0.57813,-2.21875 -0.57812,-0.82812 -1.59375,-0.82812 -1,0 -1.57812,0.82812 -0.5625,0.82813 -0.5625,2.21875 0,1.39063 0.5625,2.21875 0.57812,0.82813 1.57812,0.82813 z m 6.49225,1.53125 v -9.15625 h 1.78125 l 0.14063,1.23437 h 0.0781 q 0.60938,-0.60937 1.32813,-1.03125 0.71875,-0.4375 1.67187,-0.4375 1.46875,0 2.14063,0.95313 0.67187,0.9375 0.67187,2.6875 v 5.75 h -2.14062 v -5.46875 q 0,-1.14063 -0.34375,-1.59375 -0.32813,-0.46875 -1.09375,-0.46875 -0.59375,0 -1.0625,0.29687 -0.45313,0.28125 -1.03125,0.82813 v 6.40625 z m 13.68189,0.21875 q -0.8125,0 -1.35938,-0.23438 -0.54687,-0.25 -0.89062,-0.6875 -0.34375,-0.4375 -0.51563,-1.03125 -0.15625,-0.60937 -0.15625,-1.35937 v -4.375 h -1.29687 v -1.59375 l 1.42187,-0.0937 0.25,-2.5 h 1.79688 v 2.5 h 2.32812 v 1.6875 h -2.32812 v 4.375 q 0,1.59375 1.28125,1.59375 0.25,0 0.5,-0.0469 0.25,-0.0625 0.45312,-0.15625 l 0.375,1.59375 q -0.375,0.125 -0.85937,0.21875 -0.46875,0.10938 -1,0.10938 z m 3.50055,-0.21875 v -9.15625 h 1.78125 l 0.14062,1.625 h 0.0781 q 0.48437,-0.90625 1.17187,-1.375 0.6875,-0.48438 1.42188,-0.48438 0.65625,0 1.04687,0.1875 l -0.375,1.875 q -0.25,-0.0781 -0.45312,-0.10937 -0.20313,-0.0469 -0.5,-0.0469 -0.54688,0 -1.14063,0.42188 -0.59375,0.42187 -1.03125,1.46875 v 5.59375 z m 10.52215,0.21875 q -0.85937,0 -1.64062,-0.3125 -0.78125,-0.3125 -1.39063,-0.92188 -0.60937,-0.625 -0.96875,-1.51562 -0.34375,-0.90625 -0.34375,-2.04688 0,-1.125 0.34375,-2.01562 0.35938,-0.90625 0.96875,-1.51563 0.60938,-0.625 1.39063,-0.95312 0.78125,-0.32813 1.64062,-0.32813 0.85938,0 1.65625,0.32813 0.79688,0.32812 1.39063,0.95312 0.59375,0.60938 0.95312,1.51563 0.375,0.89062 0.375,2.01562 0,1.14063 -0.375,2.04688 -0.35937,0.89062 -0.95312,1.51562 -0.59375,0.60938 -1.39063,0.92188 -0.79687,0.3125 -1.65625,0.3125 z m 0,-1.75 q 1.01563,0 1.59375,-0.82813 0.57813,-0.82812 0.57813,-2.21875 0,-1.39062 -0.57813,-2.21875 -0.57812,-0.82812 -1.59375,-0.82812 -1,0 -1.57812,0.82812 -0.5625,0.82813 -0.5625,2.21875 0,1.39063 0.5625,2.21875 0.57812,0.82813 1.57812,0.82813 z m 8.586,1.75 q -1.15625,0 -1.625,-0.6875 -0.46875,-0.6875 -0.46875,-1.875 v -10.82813 h 2.14063 v 10.9375 q 0,0.39063 0.15625,0.54688 0.15625,0.15625 0.3125,0.15625 0.0781,0 0.14062,0 0.0625,0 0.20313,-0.0312 l 0.28125,1.59375 q -0.4375,0.1875 -1.14063,0.1875 z m 5.5246,0 q -0.95313,0 -1.875,-0.35938 -0.92188,-0.35937 -1.59375,-0.90625 l 1,-1.375 q 0.625,0.48438 1.21875,0.75 0.60937,0.26563 1.32812,0.26563 0.73438,0 1.09375,-0.29688 0.35938,-0.3125 0.35938,-0.79687 0,-0.28125 -0.17188,-0.48438 -0.17187,-0.21875 -0.45312,-0.39062 -0.28125,-0.17188 -0.64063,-0.3125 -0.34375,-0.14063 -0.70312,-0.28125 -0.4375,-0.17188 -0.90625,-0.39063 -0.46875,-0.23437 -0.84375,-0.54687 -0.35938,-0.3125 -0.59375,-0.73438 -0.21875,-0.42187 -0.21875,-1 0,-1.21875 0.89062,-1.98437 0.89063,-0.76563 2.4375,-0.76563 0.95313,0 1.71875,0.34375 0.76563,0.32813 1.32813,0.76563 l -0.98438,1.29687 q -0.48437,-0.34375 -0.98437,-0.5625 -0.5,-0.21875 -1.03125,-0.21875 -0.70313,0 -1.03125,0.29688 -0.3125,0.28125 -0.3125,0.71875 0,0.28125 0.15625,0.48437 0.15625,0.1875 0.40625,0.34375 0.26562,0.14063 0.60937,0.28125 0.35938,0.125 0.71875,0.25 0.46875,0.17188 0.9375,0.39063 0.46875,0.20312 0.84375,0.53125 0.39063,0.3125 0.625,0.76562 0.23438,0.45313 0.23438,1.09375 0,0.59375 -0.23438,1.10938 -0.23437,0.51562 -0.6875,0.90625 -0.4375,0.375 -1.10937,0.59375 -0.67188,0.21875 -1.53125,0.21875 z" />
  <path
     style="fill:#26a6a6;fill-rule:evenodd;stroke:none"
     inkscape:connector-curvature="0"
     id="path53"
     d="m 14.471127,45.96982 h 91.338583 v 69.82677 H 14.471127 Z" />
  <path
     style="fill:#000000;fill-opacity:0;fill-rule:evenodd"
     inkscape:connector-curvature="0"
     id="path57"
     d="m 20.156167,61.67061 h 79.968513 v 38.4252 H 20.156167 Z" />
  <path
     style="fill:#ffffff;fill-rule:nonzero"
     inkscape:connector-curvature="0"
     id="path59"
     d="M 37.909951,88.59059 V 76.38746 h 2.17187 v 10.375 h 5.06251 v 1.82813 z m 9.36543,0 V 76.38746 h 2.17188 v 12.20313 z m 5.261067,0 V 76.38746 h 3.26562 q 2.79688,0 4.35938,1.51563 1.57812,1.51562 1.57812,4.53125 0,1.51562 -0.40625,2.67187 -0.40625,1.15625 -1.15625,1.9375 -0.75,0.76563 -1.82812,1.15625 -1.07813,0.39063 -2.4375,0.39063 z m 2.17187,-1.75 h 0.95313 q 1.85937,0 2.85937,-1.07813 1,-1.07812 1,-3.32812 0,-2.23438 -1.01562,-3.26563 -1,-1.03125 -2.84375,-1.03125 h -0.95313 z m 11.80162,-4.75 -0.42187,1.5 h 3.10937 l -0.42187,-1.5 q -0.3125,-0.96875 -0.57813,-1.98438 -0.26562,-1.03125 -0.53125,-2.03125 h -0.0781 q -0.25,1.01563 -0.51563,2.03125 -0.26562,1.01563 -0.5625,1.98438 z m -4.07812,6.5 3.96875,-12.20313 h 2.53125 l 3.98437,12.20313 h -2.28125 l -0.95312,-3.29688 h -4.10938 l -0.9375,3.29688 z m 11.98831,0 V 76.38746 h 4.125 q 0.95312,0 1.76562,0.1875 0.82813,0.1875 1.42188,0.60938 0.59375,0.42187 0.9375,1.10937 0.35937,0.6875 0.35937,1.71875 0,1.39063 -0.67187,2.25 -0.65625,0.85938 -1.76563,1.23438 l 2.92188,5.09375 h -2.4375 l -2.625,-4.78125 h -1.85938 v 4.78125 z m 2.17187,-6.5 h 1.73438 q 1.25,0 1.90625,-0.51563 0.65625,-0.51562 0.65625,-1.5625 0,-1.0625 -0.65625,-1.46875 -0.65625,-0.42187 -1.90625,-0.42187 h -1.73438 z" />
  <path
     style="fill:#26a6a6;fill-rule:evenodd;stroke:none"
     inkscape:connector-curvature="0"
     id="path61"
     d="m 14.471127,141.29265 h 91.338583 v 69.82678 H 14.471127 Z" />
  <path
     style="fill:#000000;fill-opacity:0;fill-rule:evenodd"
     inkscape:connector-curvature="0"
     id="path65"
     d="m 14.471127,156.99343 h 91.338583 v 38.4252 H 14.471127 Z" />
  <path
     style="fill:#000000;fill-opacity:0;fill-rule:evenodd"
     inkscape:connector-curvature="0"
     id="path69"
     d="M 0.5,0.5 H 121.28741 V 41.44488 H 0.5 Z" />
  <path
     style="fill:#6e7a94;fill-rule:nonzero"
     inkscape:connector-curvature="0"
     id="path71"
     d="m 13.859377,25.0475 q -1.109375,0 -2.0625,-0.40625 -0.9375,-0.42187 -1.625,-1.14062 l 0.796875,-0.92188 q 0.5625,0.57813 1.3125,0.95313 0.765625,0.35937 1.59375,0.35937 1.03125,0 1.609375,-0.46875 0.578125,-0.48437 0.578125,-1.25 0,-0.40625 -0.140625,-0.67187 -0.140625,-0.28125 -0.375,-0.48438 -0.21875,-0.20312 -0.546875,-0.35937 -0.3125,-0.17188 -0.6875,-0.34375 l -1.5,-0.65625 q -0.375,-0.15625 -0.765625,-0.375 -0.375,-0.23438 -0.6875,-0.54688 -0.296875,-0.32812 -0.484375,-0.76562 -0.1875,-0.4375 -0.1875,-1.01563 0,-0.59375 0.25,-1.09375 0.25,-0.51562 0.6875,-0.89062 0.4375,-0.375 1.03125,-0.57813 0.609375,-0.21875 1.328125,-0.21875 0.9375,0 1.734375,0.35938 0.8125,0.35937 1.359375,0.9375 l -0.71875,0.85937 q -0.46875,-0.45312 -1.0625,-0.71875 -0.578125,-0.26562 -1.3125,-0.26562 -0.890625,0 -1.421875,0.40625 -0.53125,0.40625 -0.53125,1.125 0,0.39062 0.140625,0.65625 0.15625,0.25 0.40625,0.45312 0.265625,0.20313 0.5625,0.35938 0.3125,0.14062 0.625,0.28125 l 1.5,0.64062 q 0.4375,0.1875 0.84375,0.4375 0.40625,0.25 0.6875,0.57813 0.28125,0.32812 0.453125,0.76562 0.171875,0.4375 0.171875,1.01563 0,0.625 -0.25,1.17187 -0.25,0.53125 -0.71875,0.95313 -0.453125,0.40625 -1.109375,0.64062 -0.65625,0.21875 -1.484375,0.21875 z m 8.653397,0 q -0.78125,0 -1.46875,-0.28125 -0.6875,-0.28125 -1.1875,-0.79687 -0.5,-0.51563 -0.796875,-1.26563 -0.28125,-0.75 -0.28125,-1.71875 0,-0.95312 0.296875,-1.71875 0.296875,-0.76562 0.78125,-1.28125 0.484375,-0.53125 1.109375,-0.8125 0.625,-0.28125 1.296875,-0.28125 0.734375,0 1.3125,0.26563 0.59375,0.25 0.984375,0.73437 0.390625,0.46875 0.59375,1.14063 0.21875,0.67187 0.21875,1.51562 0,0.20313 -0.01563,0.40625 0,0.1875 -0.03125,0.34375 h -5.25 q 0.07813,1.25 0.765625,1.98438 0.703125,0.71875 1.828125,0.71875 0.5625,0 1.03125,-0.17188 0.46875,-0.17187 0.90625,-0.4375 l 0.46875,0.85938 q -0.515625,0.32812 -1.140625,0.5625 -0.625,0.23437 -1.421875,0.23437 z m -2.453125,-4.70312 h 4.15625 q 0,-1.1875 -0.5,-1.79688 -0.5,-0.60937 -1.421875,-0.60937 -0.40625,0 -0.78125,0.15625 -0.375,0.15625 -0.6875,0.46875 -0.296875,0.3125 -0.5,0.76562 -0.203125,0.4375 -0.265625,1.01563 z M 27.292544,24.86 v -7.78125 h 1.09375 l 0.109375,1.125 h 0.04687 q 0.5625,-0.5625 1.171875,-0.9375 0.625,-0.375 1.4375,-0.375 1.234375,0 1.796875,0.76563 0.5625,0.76562 0.5625,2.28125 V 24.86 h -1.3125 v -4.75 q 0,-1.10937 -0.359375,-1.59375 -0.34375,-0.48437 -1.109375,-0.48437 -0.609375,0 -1.078125,0.3125 -0.453125,0.29687 -1.046875,0.89062 v 5.625 z m 10.783267,0.1875 q -0.82813,0 -1.57813,-0.29687 -0.75,-0.3125 -1.312498,-0.76563 l 0.656248,-0.89062 q 0.5,0.42187 1.03125,0.6875 0.54688,0.25 1.25,0.25 0.76563,0 1.14063,-0.34375 0.39062,-0.35938 0.39062,-0.875 0,-0.3125 -0.15625,-0.53125 -0.15625,-0.21875 -0.40625,-0.39063 -0.25,-0.17187 -0.57812,-0.29687 -0.3125,-0.125 -0.625,-0.25 -0.42188,-0.14063 -0.84375,-0.32813 -0.40625,-0.1875 -0.73438,-0.45312 -0.32812,-0.26563 -0.54687,-0.60938 -0.20313,-0.35937 -0.20313,-0.85937 0,-0.45313 0.1875,-0.85938 0.1875,-0.42187 0.53125,-0.70312 0.34375,-0.29688 0.82813,-0.46875 0.5,-0.17188 1.125,-0.17188 0.73437,0 1.34375,0.26563 0.625,0.25 1.07812,0.60937 l -0.625,0.84375 q -0.40625,-0.3125 -0.84375,-0.5 -0.42187,-0.1875 -0.9375,-0.1875 -0.73437,0 -1.07812,0.34375 -0.34375,0.32813 -0.34375,0.76563 0,0.28125 0.14062,0.48437 0.15625,0.1875 0.39063,0.34375 0.23437,0.15625 0.54687,0.28125 0.3125,0.10938 0.65625,0.23438 0.40625,0.17187 0.82813,0.34375 0.4375,0.17187 0.76562,0.4375 0.34375,0.26562 0.54688,0.65625 0.21875,0.375 0.21875,0.92187 0,0.48438 -0.1875,0.90625 -0.17188,0.40625 -0.53125,0.73438 -0.35938,0.3125 -0.90625,0.48437 -0.53125,0.1875 -1.21875,0.1875 z m 7.70401,0 q -0.73438,0 -1.39063,-0.26562 -0.64062,-0.28125 -1.14062,-0.79688 -0.48438,-0.51562 -0.78125,-1.26562 -0.29688,-0.76563 -0.29688,-1.73438 0,-0.96875 0.29688,-1.73437 0.29687,-0.76563 0.78125,-1.28125 0.5,-0.53125 1.14062,-0.79688 0.65625,-0.28125 1.39063,-0.28125 0.71875,0 1.35938,0.28125 0.65625,0.26563 1.14062,0.79688 0.5,0.51562 0.79688,1.28125 0.29687,0.76562 0.29687,1.73437 0,0.96875 -0.29687,1.73438 -0.29688,0.75 -0.79688,1.26562 -0.48437,0.51563 -1.14062,0.79688 -0.64063,0.26562 -1.35938,0.26562 z m 0,-1.07812 q 0.48438,0 0.89063,-0.21875 0.42187,-0.21875 0.71875,-0.60938 0.29687,-0.39062 0.45312,-0.9375 0.17188,-0.54687 0.17188,-1.21875 0,-0.67187 -0.17188,-1.21875 -0.15625,-0.54687 -0.45312,-0.95312 -0.29688,-0.40625 -0.71875,-0.60938 -0.40625,-0.21875 -0.89063,-0.21875 -0.5,0 -0.92188,0.21875 -0.40625,0.20313 -0.70312,0.60938 -0.29688,0.40625 -0.46875,0.95312 -0.15625,0.54688 -0.15625,1.21875 0,0.67188 0.15625,1.21875 0.17187,0.54688 0.46875,0.9375 0.29687,0.39063 0.70312,0.60938 0.42188,0.21875 0.92188,0.21875 z M 51.420578,24.86 v -7.78125 h 1.09375 l 0.10938,1.40625 h 0.0469 q 0.39063,-0.73437 0.95313,-1.15625 0.57812,-0.4375 1.25,-0.4375 0.46875,0 0.82812,0.15625 l -0.25,1.15625 q -0.1875,-0.0625 -0.35937,-0.0937 -0.15625,-0.0312 -0.39063,-0.0312 -0.5,0 -1.03125,0.40625 -0.53125,0.39063 -0.9375,1.39063 v 4.98437 z m 7.51928,0.1875 q -0.82813,0 -1.57813,-0.29687 -0.75,-0.3125 -1.3125,-0.76563 l 0.65625,-0.89062 q 0.5,0.42187 1.03125,0.6875 0.54688,0.25 1.25,0.25 0.76563,0 1.14063,-0.34375 0.39062,-0.35938 0.39062,-0.875 0,-0.3125 -0.15625,-0.53125 -0.15625,-0.21875 -0.40625,-0.39063 -0.25,-0.17187 -0.57812,-0.29687 -0.3125,-0.125 -0.625,-0.25 -0.42188,-0.14063 -0.84375,-0.32813 -0.40625,-0.1875 -0.73438,-0.45312 -0.32812,-0.26563 -0.54687,-0.60938 -0.20313,-0.35937 -0.20313,-0.85937 0,-0.45313 0.1875,-0.85938 0.1875,-0.42187 0.53125,-0.70312 0.34375,-0.29688 0.82813,-0.46875 0.5,-0.17188 1.125,-0.17188 0.73437,0 1.34375,0.26563 0.625,0.25 1.07812,0.60937 l -0.625,0.84375 q -0.40625,-0.3125 -0.84375,-0.5 -0.42187,-0.1875 -0.9375,-0.1875 -0.73437,0 -1.07812,0.34375 -0.34375,0.32813 -0.34375,0.76563 0,0.28125 0.14062,0.48437 0.15625,0.1875 0.39063,0.34375 0.23437,0.15625 0.54687,0.28125 0.3125,0.10938 0.65625,0.23438 0.40625,0.17187 0.82813,0.34375 0.4375,0.17187 0.76562,0.4375 0.34375,0.26562 0.54688,0.65625 0.21875,0.375 0.21875,0.92187 0,0.48438 -0.1875,0.90625 -0.17188,0.40625 -0.53125,0.73438 -0.35938,0.3125 -0.90625,0.48437 -0.53125,0.1875 -1.21875,0.1875 z" />
  <path
     style="fill:#000000;fill-opacity:0;fill-rule:evenodd"
     inkscape:connector-curvature="0"
     id="path73"
     d="m 105.80972,176.20604 h 28.94373 v -43.93701 h 28.94603" />
  <path
     style="fill-rule:evenodd;stroke:#c0c0c0;stroke-width:1;stroke-linecap:butt;stroke-linejoin:round"
     inkscape:connector-curvature="0"
     id="path75"
     d="m 105.80972,176.20604 h 28.94373 v -43.93701 h 28.94603" />
  <path
     style="fill:#000000;fill-opacity:0;fill-rule:evenodd"
     inkscape:connector-curvature="0"
     id="path77"
     d="m 105.80972,80.8832 h 28.94373 v 51.40158 h 28.94603" />
  <path
     style="fill-rule:evenodd;stroke:#c0c0c0;stroke-width:1;stroke-linecap:butt;stroke-linejoin:round"
     inkscape:connector-curvature="0"
     id="path79"
     d="m 105.80972,80.8832 h 28.94373 v 51.40158 h 25.51895" />
  <path
     style="fill:#ffffff;fill-rule:evenodd;stroke:#a9a9a9;stroke-width:1;stroke-linecap:butt"
     inkscape:connector-curvature="0"
     id="path81"
     d="m 160.2724,132.28477 -1.12459,1.12457 3.08977,-1.12457 -3.08977,-1.12457 z" />
  <path
     style="fill:#000000;fill-opacity:0;fill-rule:evenodd"
     inkscape:connector-curvature="0"
     id="path83"
     d="m 327.06693,132.28477 h 26.4252" />
  <path
     style="fill-rule:evenodd;stroke:#c0c0c0;stroke-width:1;stroke-linecap:butt;stroke-linejoin:round;font-variant-east_asian:normal;opacity:1;vector-effect:none;fill:none;fill-opacity:1;stroke-miterlimit:10;stroke-dasharray:none;stroke-dashoffset:0;stroke-opacity:1"
     inkscape:connector-curvature="0"
     id="path85"
     d="m 327.06693,132.28477 h 22.99811" />
  <path
     style="fill:none;fill-rule:evenodd;stroke:#c0c0c0;stroke-width:1;stroke-linecap:butt;font-variant-east_asian:normal;opacity:1;vector-effect:none;fill-opacity:1;stroke-linejoin:round;stroke-miterlimit:10;stroke-dasharray:none;stroke-dashoffset:0;stroke-opacity:1"
     inkscape:connector-curvature="0"
     id="path87"
     d="m 350.06503,132.28477 -1.12457,1.12457 3.08975,-1.12457 -3.08975,-1.12457 z" />
  <path
     style="fill:#000000;fill-opacity:0;fill-rule:evenodd"
     inkscape:connector-curvature="0"
     id="path89"
     d="M 516.87093,132.28477 H 543.2961" />
  <path
     style="fill-rule:evenodd;stroke:#c0c0c0;stroke-width:1;stroke-linecap:butt;stroke-linejoin:round;font-variant-east_asian:normal;opacity:1;vector-effect:none;fill:none;fill-opacity:1;stroke-miterlimit:10;stroke-dasharray:none;stroke-dashoffset:0;stroke-opacity:1"
     inkscape:connector-curvature="0"
     id="path91"
     d="m 516.87093,132.28477 h 22.99811" />
  <path
     style="fill:none;fill-rule:evenodd;stroke:#c0c0c0;stroke-width:1;stroke-linecap:butt;font-variant-east_asian:normal;opacity:1;vector-effect:none;fill-opacity:1;stroke-linejoin:round;stroke-miterlimit:10;stroke-dasharray:none;stroke-dashoffset:0;stroke-opacity:1"
     inkscape:connector-curvature="0"
     id="path93"
     d="m 539.86903,132.28477 -1.12457,1.12457 3.08978,-1.12457 -3.08978,-1.12457 z" />
  <path
     style="fill:#000000;fill-opacity:0;fill-rule:evenodd"
     inkscape:connector-curvature="0"
     id="path99"
     d="M 742.78086,0.5 H 863.56821 V 226.07481 H 742.78086 Z" />
  <path
     style="fill-rule:evenodd;stroke:#6e7a94;stroke-width:1;stroke-linecap:butt;stroke-linejoin:round"
     inkscape:connector-curvature="0"
     id="path101"
     d="M 742.78086,0.5 H 863.56821 V 226.07481 H 742.78086 Z" />
  <path
     style="fill:#000000;fill-opacity:0;fill-rule:evenodd"
     inkscape:connector-curvature="0"
     id="path103"
     d="M 742.78086,0.5 H 863.56821 V 41.44488 H 742.78086 Z" />
  <path
     style="fill:#6e7a94;fill-rule:nonzero"
     inkscape:connector-curvature="0"
     id="path105"
     d="m 755.14023,24.86 -3.35938,-10.5 h 1.42188 l 1.6875,5.67188 q 0.28125,0.9375 0.5,1.75 0.21875,0.79687 0.51562,1.71875 h 0.0625 q 0.29688,-0.92188 0.51563,-1.71875 0.21875,-0.8125 0.5,-1.75 L 758.65585,14.36 h 1.35938 l -3.32813,10.5 z m 9.10937,0.1875 q -0.78125,0 -1.46875,-0.28125 -0.6875,-0.28125 -1.1875,-0.79687 -0.5,-0.51563 -0.79687,-1.26563 -0.28125,-0.75 -0.28125,-1.71875 0,-0.95312 0.29687,-1.71875 0.29688,-0.76562 0.78125,-1.28125 0.48438,-0.53125 1.10938,-0.8125 0.625,-0.28125 1.29687,-0.28125 0.73438,0 1.3125,0.26563 0.59375,0.25 0.98438,0.73437 0.39062,0.46875 0.59375,1.14063 0.21875,0.67187 0.21875,1.51562 0,0.20313 -0.0156,0.40625 0,0.1875 -0.0312,0.34375 h -5.25 q 0.0781,1.25 0.76563,1.98438 0.70312,0.71875 1.82812,0.71875 0.5625,0 1.03125,-0.17188 0.46875,-0.17187 0.90625,-0.4375 l 0.46875,0.85938 q -0.51562,0.32812 -1.14062,0.5625 -0.625,0.23437 -1.42188,0.23437 z m -2.45312,-4.70312 h 4.15625 q 0,-1.1875 -0.5,-1.79688 -0.5,-0.60937 -1.42188,-0.60937 -0.40625,0 -0.78125,0.15625 -0.375,0.15625 -0.6875,0.46875 -0.29687,0.3125 -0.5,0.76562 -0.20312,0.4375 -0.26562,1.01563 z M 769.02939,24.86 V 13.46938 h 1.3125 v 3.10937 l -0.0469,1.59375 q 0.5625,-0.53125 1.17188,-0.90625 0.60937,-0.375 1.42187,-0.375 1.23438,0 1.79688,0.76563 0.5625,0.76562 0.5625,2.28125 V 24.86 h -1.3125 v -4.75 q 0,-1.10937 -0.35938,-1.59375 -0.34375,-0.48437 -1.10937,-0.48437 -0.60938,0 -1.07813,0.3125 -0.45312,0.29687 -1.04687,0.89062 v 5.625 z m 8.70398,0 v -7.78125 h 1.3125 V 24.86 Z m 0.67187,-9.375 q -0.39062,0 -0.65625,-0.23437 -0.25,-0.25 -0.25,-0.60938 0,-0.39062 0.25,-0.625 0.26563,-0.23437 0.65625,-0.23437 0.39063,0 0.64063,0.23437 0.26562,0.23438 0.26562,0.625 0,0.35938 -0.26562,0.60938 -0.25,0.23437 -0.64063,0.23437 z m 6.34229,9.5625 q -0.78125,0 -1.45313,-0.26562 -0.67187,-0.28125 -1.15625,-0.79688 -0.48437,-0.51562 -0.76562,-1.26562 -0.28125,-0.76563 -0.28125,-1.73438 0,-0.96875 0.29687,-1.73437 0.3125,-0.76563 0.82813,-1.28125 0.51562,-0.53125 1.1875,-0.79688 0.6875,-0.28125 1.4375,-0.28125 0.76562,0 1.3125,0.28125 0.54687,0.26563 0.95312,0.625 l -0.67187,0.875 q -0.32813,-0.3125 -0.71875,-0.5 -0.375,-0.1875 -0.82813,-0.1875 -0.53125,0 -0.98437,0.21875 -0.4375,0.20313 -0.76563,0.60938 -0.3125,0.40625 -0.5,0.95312 -0.1875,0.54688 -0.1875,1.21875 0,0.67188 0.17188,1.21875 0.1875,0.54688 0.5,0.9375 0.3125,0.39063 0.75,0.60938 0.45312,0.21875 0.98437,0.21875 0.54688,0 1,-0.23438 0.45313,-0.23437 0.8125,-0.5625 l 0.57813,0.89063 q -0.51563,0.45312 -1.15625,0.71875 -0.64063,0.26562 -1.34375,0.26562 z m 5.60852,0 q -0.75,0 -1.07813,-0.4375 -0.3125,-0.45312 -0.3125,-1.3125 v -9.82812 h 1.3125 v 9.92187 q 0,0.3125 0.10938,0.45313 0.10937,0.125 0.25,0.125 0.0781,0 0.125,0 0.0625,0 0.17187,-0.0312 l 0.17188,0.98437 q -0.125,0.0625 -0.3125,0.0937 -0.17188,0.0312 -0.4375,0.0312 z m 5.84564,0 q -0.78125,0 -1.46875,-0.28125 -0.6875,-0.28125 -1.1875,-0.79687 -0.5,-0.51563 -0.79687,-1.26563 -0.28125,-0.75 -0.28125,-1.71875 0,-0.95312 0.29687,-1.71875 0.29688,-0.76562 0.78125,-1.28125 0.48438,-0.53125 1.10938,-0.8125 0.625,-0.28125 1.29687,-0.28125 0.73438,0 1.3125,0.26563 0.59375,0.25 0.98438,0.73437 0.39062,0.46875 0.59375,1.14063 0.21875,0.67187 0.21875,1.51562 0,0.20313 -0.0156,0.40625 0,0.1875 -0.0312,0.34375 h -5.25 q 0.0781,1.25 0.76563,1.98438 0.70312,0.71875 1.82812,0.71875 0.5625,0 1.03125,-0.17188 0.46875,-0.17187 0.90625,-0.4375 l 0.46875,0.85938 q -0.51562,0.32812 -1.14062,0.5625 -0.625,0.23437 -1.42188,0.23437 z m -2.45312,-4.70312 h 4.15625 q 0,-1.1875 -0.5,-1.79688 -0.5,-0.60937 -1.42188,-0.60937 -0.40625,0 -0.78125,0.15625 -0.375,0.15625 -0.6875,0.46875 -0.29687,0.3125 -0.5,0.76562 -0.20312,0.4375 -0.26562,1.01563 z" />
  <path
     style="fill:#26a6a6;fill-rule:evenodd"
     inkscape:connector-curvature="0"
     id="path107"
     d="m 757.50523,45.96982 h 91.33862 v 38.42519 h -91.33862 z" />
  <path
     style="fill-rule:evenodd;stroke:none;stroke-width:1;stroke-linecap:butt;stroke-linejoin:round"
     inkscape:connector-curvature="0"
     id="path109"
     d="m 757.50523,45.96982 h 91.33862 v 38.42519 h -91.33862 z" />
  <path
     style="fill:#000000;fill-opacity:0;fill-rule:evenodd"
     inkscape:connector-curvature="0"
     id="path111"
     d="M 763.19029,44.84645 H 843.1588 V 74.29527 H 763.19029 Z" />
  <path
     style="fill:#ffffff;fill-rule:nonzero"
     inkscape:connector-curvature="0"
     id="path113"
     d="M 778.48663,69.20647 V 58.73772 h 2.09375 l 1.85937,5.125 q 0.17188,0.5 0.32813,1.01562 0.17187,0.51563 0.34375,1.03125 h 0.0625 q 0.17187,-0.51562 0.32812,-1.03125 0.15625,-0.51562 0.32813,-1.01562 l 1.8125,-5.125 h 2.10937 v 10.46875 h -1.71875 v -4.78125 q 0,-0.375 0.0156,-0.79688 0.0312,-0.4375 0.0625,-0.875 0.0312,-0.4375 0.0781,-0.85937 0.0625,-0.4375 0.0937,-0.79688 h -0.0625 l -0.85937,2.42188 -1.70313,4.71875 h -1.10937 l -1.73438,-4.71875 -0.82812,-2.42188 h -0.0625 q 0.0312,0.35938 0.0625,0.79688 0.0469,0.42187 0.0781,0.85937 0.0469,0.4375 0.0781,0.875 0.0312,0.42188 0.0312,0.79688 v 4.78125 z m 14.98254,0.1875 q -0.75,0 -1.42187,-0.26563 -0.67188,-0.28125 -1.1875,-0.79687 -0.51563,-0.53125 -0.82813,-1.29688 -0.29687,-0.76562 -0.29687,-1.75 0,-0.96875 0.29687,-1.73437 0.3125,-0.78125 0.82813,-1.29688 0.51562,-0.53125 1.1875,-0.8125 0.67187,-0.28125 1.42187,-0.28125 0.73438,0 1.40625,0.28125 0.6875,0.28125 1.1875,0.8125 0.51563,0.51563 0.82813,1.29688 0.3125,0.76562 0.3125,1.73437 0,0.98438 -0.3125,1.75 -0.3125,0.76563 -0.82813,1.29688 -0.5,0.51562 -1.1875,0.79687 -0.67187,0.26563 -1.40625,0.26563 z m 0,-1.5 q 0.85938,0 1.34375,-0.70313 0.5,-0.71875 0.5,-1.90625 0,-1.20312 -0.5,-1.90625 -0.48437,-0.71875 -1.34375,-0.71875 -0.875,0 -1.35937,0.71875 -0.48438,0.70313 -0.48438,1.90625 0,1.1875 0.48438,1.90625 0.48437,0.70313 1.35937,0.70313 z m 7.97889,1.5 q -0.6875,0 -1.17188,-0.20313 -0.46875,-0.20312 -0.76562,-0.57812 -0.28125,-0.375 -0.42188,-0.89063 -0.14062,-0.53125 -0.14062,-1.17187 v -3.75 h -1.125 v -1.375 l 1.21875,-0.0781 0.23437,-2.14062 h 1.53125 v 2.14062 h 2 v 1.45313 h -2 v 3.75 q 0,1.375 1.10938,1.375 0.20312,0 0.42187,-0.0469 0.21875,-0.0469 0.39063,-0.125 l 0.3125,1.35938 q -0.3125,0.10937 -0.71875,0.1875 -0.40625,0.0937 -0.875,0.0937 z m 5.97314,0 q -0.75,0 -1.42187,-0.26563 -0.67188,-0.28125 -1.1875,-0.79687 -0.51563,-0.53125 -0.82813,-1.29688 -0.29687,-0.76562 -0.29687,-1.75 0,-0.96875 0.29687,-1.73437 0.3125,-0.78125 0.82813,-1.29688 0.51562,-0.53125 1.1875,-0.8125 0.67187,-0.28125 1.42187,-0.28125 0.73438,0 1.40625,0.28125 0.6875,0.28125 1.1875,0.8125 0.51563,0.51563 0.82813,1.29688 0.3125,0.76562 0.3125,1.73437 0,0.98438 -0.3125,1.75 -0.3125,0.76563 -0.82813,1.29688 -0.5,0.51562 -1.1875,0.79687 -0.67187,0.26563 -1.40625,0.26563 z m 0,-1.5 q 0.85938,0 1.34375,-0.70313 0.5,-0.71875 0.5,-1.90625 0,-1.20312 -0.5,-1.90625 -0.48437,-0.71875 -1.34375,-0.71875 -0.875,0 -1.35937,0.71875 -0.48438,0.70313 -0.48438,1.90625 0,1.1875 0.48438,1.90625 0.48437,0.70313 1.35937,0.70313 z m 5.56525,1.3125 v -7.85938 h 1.51562 l 0.125,1.39063 h 0.0625 q 0.42188,-0.76563 1.01563,-1.17188 0.59375,-0.40625 1.21875,-0.40625 0.54687,0 0.89062,0.15625 l -0.3125,1.60938 q -0.21875,-0.0781 -0.39062,-0.10938 -0.17188,-0.0312 -0.4375,-0.0312 -0.45313,0 -0.96875,0.35938 -0.51563,0.35937 -0.875,1.26562 v 4.79688 z m 9.18365,0 v -1.5 h 2.26563 v -6.6875 h -1.875 v -1.15625 q 0.78125,-0.14063 1.32812,-0.34375 0.54688,-0.20313 1.03125,-0.48438 h 1.375 v 8.67188 h 2 v 1.5 z" />
  <path
     style="fill:#26a6a6;fill-rule:evenodd;stroke:none"
     inkscape:connector-curvature="0"
     id="path115"
     d="m 757.50523,88.91994 h 91.33862 v 38.4252 h -91.33862 z" />
  <path
     style="fill:#000000;fill-opacity:0;fill-rule:evenodd"
     inkscape:connector-curvature="0"
     id="path119"
     d="m 763.19029,87.79659 h 79.96851 v 29.44882 h -79.96851 z" />
  <path
     style="fill:#ffffff;fill-rule:nonzero"
     inkscape:connector-curvature="0"
     id="path121"
     d="m 778.48663,112.1566 v -10.46875 h 2.09375 l 1.85937,5.125 q 0.17188,0.5 0.32813,1.01562 0.17187,0.51563 0.34375,1.03125 h 0.0625 q 0.17187,-0.51562 0.32812,-1.03125 0.15625,-0.51562 0.32813,-1.01562 l 1.8125,-5.125 h 2.10937 v 10.46875 h -1.71875 v -4.78125 q 0,-0.375 0.0156,-0.79688 0.0312,-0.4375 0.0625,-0.875 0.0312,-0.4375 0.0781,-0.85937 0.0625,-0.4375 0.0937,-0.79688 h -0.0625 l -0.85937,2.42188 -1.70313,4.71875 h -1.10937 l -1.73438,-4.71875 -0.82812,-2.42188 h -0.0625 q 0.0312,0.35938 0.0625,0.79688 0.0469,0.42187 0.0781,0.85937 0.0469,0.4375 0.0781,0.875 0.0312,0.42188 0.0312,0.79688 v 4.78125 z m 14.98254,0.1875 q -0.75,0 -1.42187,-0.26563 -0.67188,-0.28125 -1.1875,-0.79687 -0.51563,-0.53125 -0.82813,-1.29688 -0.29687,-0.76562 -0.29687,-1.75 0,-0.96875 0.29687,-1.73437 0.3125,-0.78125 0.82813,-1.29688 0.51562,-0.53125 1.1875,-0.8125 0.67187,-0.28125 1.42187,-0.28125 0.73438,0 1.40625,0.28125 0.6875,0.28125 1.1875,0.8125 0.51563,0.51563 0.82813,1.29688 0.3125,0.76562 0.3125,1.73437 0,0.98438 -0.3125,1.75 -0.3125,0.76563 -0.82813,1.29688 -0.5,0.51562 -1.1875,0.79687 -0.67187,0.26563 -1.40625,0.26563 z m 0,-1.5 q 0.85938,0 1.34375,-0.70313 0.5,-0.71875 0.5,-1.90625 0,-1.20312 -0.5,-1.90625 -0.48437,-0.71875 -1.34375,-0.71875 -0.875,0 -1.35937,0.71875 -0.48438,0.70313 -0.48438,1.90625 0,1.1875 0.48438,1.90625 0.48437,0.70313 1.35937,0.70313 z m 7.97889,1.5 q -0.6875,0 -1.17188,-0.20313 -0.46875,-0.20312 -0.76562,-0.57812 -0.28125,-0.375 -0.42188,-0.89063 -0.14062,-0.53125 -0.14062,-1.17187 v -3.75 h -1.125 v -1.375 l 1.21875,-0.0781 0.23437,-2.14062 h 1.53125 v 2.14062 h 2 v 1.45313 h -2 v 3.75 q 0,1.375 1.10938,1.375 0.20312,0 0.42187,-0.0469 0.21875,-0.0469 0.39063,-0.125 l 0.3125,1.35938 q -0.3125,0.10937 -0.71875,0.1875 -0.40625,0.0937 -0.875,0.0937 z m 5.97314,0 q -0.75,0 -1.42187,-0.26563 -0.67188,-0.28125 -1.1875,-0.79687 -0.51563,-0.53125 -0.82813,-1.29688 -0.29687,-0.76562 -0.29687,-1.75 0,-0.96875 0.29687,-1.73437 0.3125,-0.78125 0.82813,-1.29688 0.51562,-0.53125 1.1875,-0.8125 0.67187,-0.28125 1.42187,-0.28125 0.73438,0 1.40625,0.28125 0.6875,0.28125 1.1875,0.8125 0.51563,0.51563 0.82813,1.29688 0.3125,0.76562 0.3125,1.73437 0,0.98438 -0.3125,1.75 -0.3125,0.76563 -0.82813,1.29688 -0.5,0.51562 -1.1875,0.79687 -0.67187,0.26563 -1.40625,0.26563 z m 0,-1.5 q 0.85938,0 1.34375,-0.70313 0.5,-0.71875 0.5,-1.90625 0,-1.20312 -0.5,-1.90625 -0.48437,-0.71875 -1.34375,-0.71875 -0.875,0 -1.35937,0.71875 -0.48438,0.70313 -0.48438,1.90625 0,1.1875 0.48438,1.90625 0.48437,0.70313 1.35937,0.70313 z m 5.56525,1.3125 v -7.85938 h 1.51562 l 0.125,1.39063 h 0.0625 q 0.42188,-0.76563 1.01563,-1.17188 0.59375,-0.40625 1.21875,-0.40625 0.54687,0 0.89062,0.15625 l -0.3125,1.60938 q -0.21875,-0.0781 -0.39062,-0.10938 -0.17188,-0.0312 -0.4375,-0.0312 -0.45313,0 -0.96875,0.35938 -0.51563,0.35937 -0.875,1.26562 v 4.79688 z m 8.60553,0 v -1.07813 q 1.04687,-1.01562 1.90625,-1.875 0.85937,-0.875 1.45312,-1.60937 0.60938,-0.73438 0.92188,-1.375 0.32812,-0.64063 0.32812,-1.21875 0,-0.8125 -0.4375,-1.28125 -0.42187,-0.46875 -1.25,-0.46875 -0.59375,0 -1.07812,0.34375 -0.48438,0.32812 -0.90625,0.78125 l -1.01563,-1.01563 q 0.70313,-0.75 1.4375,-1.15625 0.75,-0.42187 1.8125,-0.42187 0.73438,0 1.32813,0.23437 0.59375,0.21875 1,0.625 0.42187,0.40625 0.64062,0.98438 0.23438,0.57812 0.23438,1.28125 0,0.67187 -0.29688,1.375 -0.28125,0.6875 -0.79687,1.40625 -0.5,0.70312 -1.17188,1.46875 -0.67187,0.75 -1.42187,1.54687 0.40625,-0.0312 0.85937,-0.0625 0.46875,-0.0469 0.82813,-0.0469 h 2.5 v 1.5625 z" />
  <path
     style="fill:#26a6a6;fill-rule:evenodd;stroke:none"
     inkscape:connector-curvature="0"
     id="path123"
     d="m 757.50523,131.87007 h 91.33862 v 38.4252 h -91.33862 z" />
  <path
     style="fill:#000000;fill-opacity:0;fill-rule:evenodd"
     inkscape:connector-curvature="0"
     id="path127"
     d="m 763.19029,130.74672 h 79.96851 v 29.44882 h -79.96851 z" />
  <path
     style="fill:#ffffff;fill-rule:nonzero"
     inkscape:connector-curvature="0"
     id="path129"
     d="m 778.48663,155.10671 v -10.46875 h 2.09375 l 1.85937,5.125 q 0.17188,0.5 0.32813,1.01562 0.17187,0.51563 0.34375,1.03125 h 0.0625 q 0.17187,-0.51562 0.32812,-1.03125 0.15625,-0.51562 0.32813,-1.01562 l 1.8125,-5.125 h 2.10937 v 10.46875 h -1.71875 v -4.78125 q 0,-0.375 0.0156,-0.79688 0.0312,-0.4375 0.0625,-0.875 0.0312,-0.4375 0.0781,-0.85937 0.0625,-0.4375 0.0937,-0.79688 h -0.0625 l -0.85937,2.42188 -1.70313,4.71875 h -1.10937 l -1.73438,-4.71875 -0.82812,-2.42188 h -0.0625 q 0.0312,0.35938 0.0625,0.79688 0.0469,0.42187 0.0781,0.85937 0.0469,0.4375 0.0781,0.875 0.0312,0.42188 0.0312,0.79688 v 4.78125 z m 14.98254,0.1875 q -0.75,0 -1.42187,-0.26563 -0.67188,-0.28125 -1.1875,-0.79687 -0.51563,-0.53125 -0.82813,-1.29688 -0.29687,-0.76562 -0.29687,-1.75 0,-0.96875 0.29687,-1.73437 0.3125,-0.78125 0.82813,-1.29688 0.51562,-0.53125 1.1875,-0.8125 0.67187,-0.28125 1.42187,-0.28125 0.73438,0 1.40625,0.28125 0.6875,0.28125 1.1875,0.8125 0.51563,0.51563 0.82813,1.29688 0.3125,0.76562 0.3125,1.73437 0,0.98438 -0.3125,1.75 -0.3125,0.76563 -0.82813,1.29688 -0.5,0.51562 -1.1875,0.79687 -0.67187,0.26563 -1.40625,0.26563 z m 0,-1.5 q 0.85938,0 1.34375,-0.70313 0.5,-0.71875 0.5,-1.90625 0,-1.20312 -0.5,-1.90625 -0.48437,-0.71875 -1.34375,-0.71875 -0.875,0 -1.35937,0.71875 -0.48438,0.70313 -0.48438,1.90625 0,1.1875 0.48438,1.90625 0.48437,0.70313 1.35937,0.70313 z m 7.97889,1.5 q -0.6875,0 -1.17188,-0.20313 -0.46875,-0.20312 -0.76562,-0.57812 -0.28125,-0.375 -0.42188,-0.89063 -0.14062,-0.53125 -0.14062,-1.17187 v -3.75 h -1.125 v -1.375 l 1.21875,-0.0781 0.23437,-2.14062 h 1.53125 v 2.14062 h 2 v 1.45313 h -2 v 3.75 q 0,1.375 1.10938,1.375 0.20312,0 0.42187,-0.0469 0.21875,-0.0469 0.39063,-0.125 l 0.3125,1.35938 q -0.3125,0.10937 -0.71875,0.1875 -0.40625,0.0937 -0.875,0.0937 z m 5.97314,0 q -0.75,0 -1.42187,-0.26563 -0.67188,-0.28125 -1.1875,-0.79687 -0.51563,-0.53125 -0.82813,-1.29688 -0.29687,-0.76562 -0.29687,-1.75 0,-0.96875 0.29687,-1.73437 0.3125,-0.78125 0.82813,-1.29688 0.51562,-0.53125 1.1875,-0.8125 0.67187,-0.28125 1.42187,-0.28125 0.73438,0 1.40625,0.28125 0.6875,0.28125 1.1875,0.8125 0.51563,0.51563 0.82813,1.29688 0.3125,0.76562 0.3125,1.73437 0,0.98438 -0.3125,1.75 -0.3125,0.76563 -0.82813,1.29688 -0.5,0.51562 -1.1875,0.79687 -0.67187,0.26563 -1.40625,0.26563 z m 0,-1.5 q 0.85938,0 1.34375,-0.70313 0.5,-0.71875 0.5,-1.90625 0,-1.20312 -0.5,-1.90625 -0.48437,-0.71875 -1.34375,-0.71875 -0.875,0 -1.35937,0.71875 -0.48438,0.70313 -0.48438,1.90625 0,1.1875 0.48438,1.90625 0.48437,0.70313 1.35937,0.70313 z m 5.56525,1.3125 v -7.85938 h 1.51562 l 0.125,1.39063 h 0.0625 q 0.42188,-0.76563 1.01563,-1.17188 0.59375,-0.40625 1.21875,-0.40625 0.54687,0 0.89062,0.15625 l -0.3125,1.60938 q -0.21875,-0.0781 -0.39062,-0.10938 -0.17188,-0.0312 -0.4375,-0.0312 -0.45313,0 -0.96875,0.35938 -0.51563,0.35937 -0.875,1.26562 v 4.79688 z m 11.8399,0.1875 q -1.25,0 -2.09375,-0.40625 -0.82812,-0.42188 -1.35937,-1.03125 l 0.875,-1.1875 q 0.46875,0.46875 1.04687,0.79687 0.59375,0.32813 1.375,0.32813 0.82813,0 1.34375,-0.40625 0.51563,-0.40625 0.51563,-1.125 0,-0.40625 -0.14063,-0.71875 -0.14062,-0.32813 -0.48437,-0.54688 -0.34375,-0.23437 -0.92188,-0.34375 -0.57812,-0.125 -1.4375,-0.125 v -1.34375 q 0.75,0 1.25,-0.10937 0.5,-0.125 0.8125,-0.34375 0.3125,-0.21875 0.45313,-0.51563 0.14062,-0.3125 0.14062,-0.65625 0,-0.64062 -0.40625,-1 -0.39062,-0.35937 -1.09375,-0.35937 -0.60937,0 -1.10937,0.26562 -0.48438,0.25 -0.95313,0.6875 l -0.9375,-1.14062 q 0.65625,-0.5625 1.39063,-0.92188 0.75,-0.35937 1.67187,-0.35937 0.73438,0 1.34375,0.1875 0.60938,0.17187 1.03125,0.51562 0.4375,0.34375 0.67188,0.85938 0.25,0.5 0.25,1.125 0,0.875 -0.48438,1.45312 -0.46875,0.57813 -1.29687,0.89063 v 0.0625 q 0.90625,0.23437 1.5,0.875 0.60937,0.64062 0.60937,1.65625 0,0.70312 -0.28125,1.25 -0.28125,0.54687 -0.76562,0.92187 -0.48438,0.375 -1.14063,0.57813 -0.64062,0.1875 -1.375,0.1875 z" />
  <path
     style="fill:#26a6a6;fill-rule:evenodd;stroke:none"
     inkscape:connector-curvature="0"
     id="path131"
     d="m 757.50523,174.82021 h 91.33862 v 38.4252 h -91.33862 z" />
  <path
     style="fill:#000000;fill-opacity:0;fill-rule:evenodd"
     inkscape:connector-curvature="0"
     id="path135"
     d="m 763.19029,173.69687 h 79.96851 v 29.44882 h -79.96851 z" />
  <path
     style="fill:#ffffff;fill-rule:nonzero"
     inkscape:connector-curvature="0"
     id="path137"
     d="m 778.48663,198.05684 v -10.46875 h 2.09375 l 1.85937,5.125 q 0.17188,0.5 0.32813,1.01562 0.17187,0.51563 0.34375,1.03125 h 0.0625 q 0.17187,-0.51562 0.32812,-1.03125 0.15625,-0.51562 0.32813,-1.01562 l 1.8125,-5.125 h 2.10937 v 10.46875 h -1.71875 v -4.78125 q 0,-0.375 0.0156,-0.79688 0.0312,-0.4375 0.0625,-0.875 0.0312,-0.4375 0.0781,-0.85937 0.0625,-0.4375 0.0937,-0.79688 h -0.0625 l -0.85937,2.42188 -1.70313,4.71875 h -1.10937 l -1.73438,-4.71875 -0.82812,-2.42188 h -0.0625 q 0.0312,0.35938 0.0625,0.79688 0.0469,0.42187 0.0781,0.85937 0.0469,0.4375 0.0781,0.875 0.0312,0.42188 0.0312,0.79688 v 4.78125 z m 14.98254,0.1875 q -0.75,0 -1.42187,-0.26563 -0.67188,-0.28125 -1.1875,-0.79687 -0.51563,-0.53125 -0.82813,-1.29688 -0.29687,-0.76562 -0.29687,-1.75 0,-0.96875 0.29687,-1.73437 0.3125,-0.78125 0.82813,-1.29688 0.51562,-0.53125 1.1875,-0.8125 0.67187,-0.28125 1.42187,-0.28125 0.73438,0 1.40625,0.28125 0.6875,0.28125 1.1875,0.8125 0.51563,0.51563 0.82813,1.29688 0.3125,0.76562 0.3125,1.73437 0,0.98438 -0.3125,1.75 -0.3125,0.76563 -0.82813,1.29688 -0.5,0.51562 -1.1875,0.79687 -0.67187,0.26563 -1.40625,0.26563 z m 0,-1.5 q 0.85938,0 1.34375,-0.70313 0.5,-0.71875 0.5,-1.90625 0,-1.20312 -0.5,-1.90625 -0.48437,-0.71875 -1.34375,-0.71875 -0.875,0 -1.35937,0.71875 -0.48438,0.70313 -0.48438,1.90625 0,1.1875 0.48438,1.90625 0.48437,0.70313 1.35937,0.70313 z m 7.97889,1.5 q -0.6875,0 -1.17188,-0.20313 -0.46875,-0.20312 -0.76562,-0.57812 -0.28125,-0.375 -0.42188,-0.89063 -0.14062,-0.53125 -0.14062,-1.17187 v -3.75 h -1.125 v -1.375 l 1.21875,-0.0781 0.23437,-2.14062 h 1.53125 v 2.14062 h 2 v 1.45313 h -2 v 3.75 q 0,1.375 1.10938,1.375 0.20312,0 0.42187,-0.0469 0.21875,-0.0469 0.39063,-0.125 l 0.3125,1.35938 q -0.3125,0.10937 -0.71875,0.1875 -0.40625,0.0937 -0.875,0.0937 z m 5.97314,0 q -0.75,0 -1.42187,-0.26563 -0.67188,-0.28125 -1.1875,-0.79687 -0.51563,-0.53125 -0.82813,-1.29688 -0.29687,-0.76562 -0.29687,-1.75 0,-0.96875 0.29687,-1.73437 0.3125,-0.78125 0.82813,-1.29688 0.51562,-0.53125 1.1875,-0.8125 0.67187,-0.28125 1.42187,-0.28125 0.73438,0 1.40625,0.28125 0.6875,0.28125 1.1875,0.8125 0.51563,0.51563 0.82813,1.29688 0.3125,0.76562 0.3125,1.73437 0,0.98438 -0.3125,1.75 -0.3125,0.76563 -0.82813,1.29688 -0.5,0.51562 -1.1875,0.79687 -0.67187,0.26563 -1.40625,0.26563 z m 0,-1.5 q 0.85938,0 1.34375,-0.70313 0.5,-0.71875 0.5,-1.90625 0,-1.20312 -0.5,-1.90625 -0.48437,-0.71875 -1.34375,-0.71875 -0.875,0 -1.35937,0.71875 -0.48438,0.70313 -0.48438,1.90625 0,1.1875 0.48438,1.90625 0.48437,0.70313 1.35937,0.70313 z m 5.56525,1.3125 v -7.85938 h 1.51562 l 0.125,1.39063 h 0.0625 q 0.42188,-0.76563 1.01563,-1.17188 0.59375,-0.40625 1.21875,-0.40625 0.54687,0 0.89062,0.15625 l -0.3125,1.60938 q -0.21875,-0.0781 -0.39062,-0.10938 -0.17188,-0.0312 -0.4375,-0.0312 -0.45313,0 -0.96875,0.35938 -0.51563,0.35937 -0.875,1.26562 v 4.79688 z m 12.7774,0 v -2.625 h -4.5 v -1.25 l 4.03125,-6.29688 h 2.20313 v 6.125 h 1.28125 v 1.42188 h -1.28125 v 2.625 z m -2.67187,-4.04688 h 2.67187 v -2.3125 q 0,-0.4375 0.0156,-1.04687 0.0312,-0.60938 0.0625,-1.0625 h -0.0625 q -0.1875,0.40625 -0.40625,0.79687 -0.20313,0.375 -0.42188,0.79688 z" />
  <path
     style="fill:#000000;fill-opacity:0;fill-rule:evenodd"
     inkscape:connector-curvature="0"
     id="path139"
     d="m 706.67497,132.28477 h 25.41528 V 65.19816 h 25.41932" />
  <path
     style="fill-rule:evenodd;stroke:#c0c0c0;stroke-width:1;stroke-linecap:butt;stroke-linejoin:round"
     inkscape:connector-curvature="0"
     id="path141"
     d="m 706.67497,132.28477 h 25.41528 V 65.19816 h 21.99225" />
  <path
     style="fill:#ffffff;fill-rule:evenodd;stroke:#a9a9a9;stroke-width:1;stroke-linecap:butt"
     inkscape:connector-curvature="0"
     id="path143"
     d="m 754.08253,65.19817 -1.12457,1.12457 3.08978,-1.12457 -3.08978,-1.12457 z" />
  <path
     style="fill:#000000;fill-opacity:0;fill-rule:evenodd"
     inkscape:connector-curvature="0"
     id="path145"
     d="m 706.67497,132.28477 h 25.41528 V 108.1273 h 25.41932" />
  <path
     style="opacity:1;vector-effect:none;fill:none;fill-opacity:1;fill-rule:evenodd;stroke:#c0c0c0;stroke-width:1;stroke-linecap:butt;stroke-linejoin:round;stroke-miterlimit:10;stroke-dasharray:none;stroke-dashoffset:0;stroke-opacity:1"
     inkscape:connector-curvature="0"
     id="path147"
     d="m 706.67497,132.28477 h 25.41528 V 108.1273 h 21.99225" />
  <path
     style="fill:#ffffff;fill-rule:evenodd;stroke:#a9a9a9;stroke-width:1;stroke-linecap:butt"
     inkscape:connector-curvature="0"
     id="path149"
     d="m 754.08253,108.12731 -1.12457,1.12457 3.08978,-1.12457 -3.08978,-1.1246 z" />
  <path
     style="fill:#000000;fill-opacity:0;fill-rule:evenodd"
     inkscape:connector-curvature="0"
     id="path151"
     d="m 706.67497,132.28477 h 25.41528 v 18.80316 h 25.41932" />
  <path
     style="fill-rule:evenodd;stroke:#c0c0c0;stroke-width:1;stroke-linecap:butt;stroke-linejoin:round"
     inkscape:connector-curvature="0"
     id="path153"
     d="m 706.67497,132.28477 h 25.41528 v 18.80316 h 21.99225" />
  <path
     style="fill:#ffffff;fill-rule:evenodd;stroke:#c0c0c0;stroke-width:1;stroke-linecap:butt"
     inkscape:connector-curvature="0"
     id="path155"
     d="m 754.08253,151.08794 -1.12457,1.12457 3.08978,-1.12457 -3.08978,-1.1246 z" />
  <path
     style="fill:#000000;fill-opacity:0;fill-rule:evenodd"
     inkscape:connector-curvature="0"
     id="path157"
     d="m 706.67497,132.28477 h 25.41528 v 61.76379 h 25.41932" />
  <path
     style="fill-rule:evenodd;stroke:#c0c0c0;stroke-width:1;stroke-linecap:butt;stroke-linejoin:round"
     inkscape:connector-curvature="0"
     id="path159"
     d="m 706.67497,132.28477 h 25.41528 v 61.76379 h 21.99225" />
  <path
     style="fill:#ffffff;fill-rule:evenodd;stroke:#c0c0c0;stroke-width:1;stroke-linecap:butt"
     inkscape:connector-curvature="0"
     id="path161"
     d="m 754.08253,194.04857 -1.12457,1.12457 3.08978,-1.12457 -3.08978,-1.1246 z" />
  <path
     style="fill:#000000;fill-opacity:0;fill-rule:evenodd"
     inkscape:connector-curvature="0"
     id="path163"
     d="m 345.45539,35.87035 h 179.46457 v 38.4252 H 345.45539 Z" />
  <path
     style="fill:#000000;fill-opacity:0;fill-rule:evenodd"
     inkscape:connector-curvature="0"
     id="path167"
     d="m 353.08915,80.88367 v -8.48556 h 164.19684 v 8.48556" />
  <text
     xml:space="preserve"
     style="font-style:normal;font-variant:normal;font-weight:600;font-stretch:normal;font-size:18.66666603px;line-height:1.25;font-family:'Source Sans Pro';-inkscape-font-specification:'Source Sans Pro, Semi-Bold';font-variant-ligatures:normal;font-variant-caps:normal;font-variant-numeric:normal;font-feature-settings:normal;text-align:start;letter-spacing:0px;word-spacing:0px;writing-mode:lr-tb;text-anchor:start;fill:#ffffff;fill-opacity:1;stroke:none"
     x="22.571524"
     y="183.95186"
     id="text888"><tspan
       sodipodi:role="line"
       id="tspan886"
       x="22.571524"
       y="183.95186">Switches</tspan></text>
</svg>
