<?xml version="1.0" encoding="UTF-8" standalone="no"?>
<!-- Created with Inkscape (http://www.inkscape.org/) -->

<svg
   xmlns:dc="http://purl.org/dc/elements/1.1/"
   xmlns:cc="http://creativecommons.org/ns#"
   xmlns:rdf="http://www.w3.org/1999/02/22-rdf-syntax-ns#"
   xmlns:svg="http://www.w3.org/2000/svg"
   xmlns="http://www.w3.org/2000/svg"
   xmlns:sodipodi="http://sodipodi.sourceforge.net/DTD/sodipodi-0.dtd"
   xmlns:inkscape="http://www.inkscape.org/namespaces/inkscape"
   width="400mm"
   height="259.6217mm"
   viewBox="0 0 400.00001 259.62171"
   version="1.1"
   id="svg8"
   inkscape:version="0.92.3 (2405546, 2018-03-11)"
   sodipodi:docname="controls-turn.svg">
  <defs
     id="defs2" />
  <sodipodi:namedview
     id="base"
     pagecolor="#ffffff"
     bordercolor="#666666"
     borderopacity="1.0"
     inkscape:pageopacity="0.0"
     inkscape:pageshadow="2"
     inkscape:zoom="0.49497475"
     inkscape:cx="556.17393"
     inkscape:cy="564.1208"
     inkscape:document-units="mm"
     inkscape:current-layer="layer1"
     showgrid="false"
     inkscape:window-width="1853"
     inkscape:window-height="1025"
     inkscape:window-x="67"
     inkscape:window-y="27"
     inkscape:window-maximized="1"
     fit-margin-top="0"
     fit-margin-left="0"
     fit-margin-right="0"
     fit-margin-bottom="0" />
  <metadata
     id="metadata5">
    <rdf:RDF>
      <cc:Work
         rdf:about="">
        <dc:format>image/svg+xml</dc:format>
        <dc:type
           rdf:resource="http://purl.org/dc/dcmitype/StillImage" />
        <dc:title></dc:title>
      </cc:Work>
    </rdf:RDF>
  </metadata>
  <g
     inkscape:label="Layer 1"
     inkscape:groupmode="layer"
     id="layer1"
     transform="translate(-148.22574,-41.3199)">
    <path
       style="fill:#272c37;fill-rule:evenodd;stroke:none;stroke-width:0.44757724;stroke-linecap:square;stroke-miterlimit:10"
       inkscape:connector-curvature="0"
       id="path5"
       d="m 148.22574,41.3199 h 400 v 259.6217 h -400 z" />
    <g
       transform="rotate(45,393.59854,586.00543)"
       id="g967">
      <path
         style="opacity:1;vector-effect:none;fill:#696969;fill-opacity:1;fill-rule:evenodd;stroke:none;stroke-width:1.46528673;stroke-linecap:butt;stroke-linejoin:miter;stroke-miterlimit:10;stroke-dasharray:none;stroke-dashoffset:0;stroke-opacity:1"
         inkscape:connector-curvature="0"
         id="path959"
         d="m 90.649251,185.84096 v 0 c 2.2e-5,0.64781 -0.525278,1.17297 -1.17308,1.1729 l -15.858953,-0.002 c -0.311087,-2e-5 -0.609451,-0.12365 -0.829526,-0.34357 -0.219983,-0.22006 -0.343607,-0.51841 -0.343566,-0.82953 l 8e-6,-4.69216 c -2.8e-5,-0.64781 0.525149,-1.17304 1.173071,-1.17289 l 15.858911,0.002 v 0 c 0.647853,9e-5 1.173091,0.52534 1.173084,1.17318 z" />
      <path
         style="opacity:1;vector-effect:none;fill:#696969;fill-opacity:1;fill-rule:evenodd;stroke:none;stroke-width:1.46528673;stroke-linecap:butt;stroke-linejoin:miter;stroke-miterlimit:10;stroke-dasharray:none;stroke-dashoffset:0;stroke-opacity:1"
         inkscape:connector-curvature="0"
         id="path961"
         d="m 90.649183,166.1196 v 0 c 2.7e-5,0.64782 -0.525235,1.1729 -1.173075,1.17291 l -15.858929,-0.002 c -0.311126,-4e-5 -0.60948,-0.12367 -0.829477,-0.34371 -0.220046,-0.21993 -0.343583,-0.5184 -0.343615,-0.82945 l 8e-6,-4.69216 c 2.1e-5,-0.6479 0.525154,-1.17305 1.173048,-1.17291 l 15.858939,0.002 v 0 c 0.647892,2e-5 1.173086,0.52535 1.173099,1.17319 z" />
      <path
         style="fill:#26a6a6;fill-rule:evenodd;stroke:none;stroke-width:1.46528673;stroke-linecap:square;stroke-miterlimit:10"
         inkscape:connector-curvature="0"
         id="path963"
         d="m 89.798655,189.95615 -16.498321,-0.002 -3.8e-5,-31.72069 16.49833,0.002 z" />
      <path
         style="opacity:1;vector-effect:none;fill:#ffffff;fill-opacity:1;fill-rule:evenodd;stroke:none;stroke-width:1.46528673;stroke-linecap:butt;stroke-linejoin:miter;stroke-miterlimit:10;stroke-dasharray:none;stroke-dashoffset:0;stroke-opacity:1"
         inkscape:connector-curvature="0"
         id="path965"
         d="m 85.609477,165.26964 -4.065621,-7.03872 -4.065267,7.03795 z" />
    </g>
    <g
       id="g873"
       transform="rotate(45,317.05836,401.22109)">
      <path
         d="m 90.649251,185.84096 v 0 c 2.2e-5,0.64781 -0.525278,1.17297 -1.17308,1.1729 l -15.858953,-0.002 c -0.311087,-2e-5 -0.609451,-0.12365 -0.829526,-0.34357 -0.219983,-0.22006 -0.343607,-0.51841 -0.343566,-0.82953 l 8e-6,-4.69216 c -2.8e-5,-0.64781 0.525149,-1.17304 1.173071,-1.17289 l 15.858911,0.002 v 0 c 0.647853,9e-5 1.173091,0.52534 1.173084,1.17318 z"
         id="path79"
         inkscape:connector-curvature="0"
         style="opacity:1;vector-effect:none;fill:#696969;fill-opacity:1;fill-rule:evenodd;stroke:none;stroke-width:1.46528673;stroke-linecap:butt;stroke-linejoin:miter;stroke-miterlimit:10;stroke-dasharray:none;stroke-dashoffset:0;stroke-opacity:1" />
      <path
         d="m 90.649183,166.1196 v 0 c 2.7e-5,0.64782 -0.525235,1.1729 -1.173075,1.17291 l -15.858929,-0.002 c -0.311126,-4e-5 -0.60948,-0.12367 -0.829477,-0.34371 -0.220046,-0.21993 -0.343583,-0.5184 -0.343615,-0.82945 l 8e-6,-4.69216 c 2.1e-5,-0.6479 0.525154,-1.17305 1.173048,-1.17291 l 15.858939,0.002 v 0 c 0.647892,2e-5 1.173086,0.52535 1.173099,1.17319 z"
         id="path81"
         inkscape:connector-curvature="0"
         style="opacity:1;vector-effect:none;fill:#696969;fill-opacity:1;fill-rule:evenodd;stroke:none;stroke-width:1.46528673;stroke-linecap:butt;stroke-linejoin:miter;stroke-miterlimit:10;stroke-dasharray:none;stroke-dashoffset:0;stroke-opacity:1" />
      <path
         d="m 89.798655,189.95615 -16.498321,-0.002 -3.8e-5,-31.72069 16.49833,0.002 z"
         id="path83"
         inkscape:connector-curvature="0"
         style="fill:#26a6a6;fill-rule:evenodd;stroke:none;stroke-width:1.46528673;stroke-linecap:square;stroke-miterlimit:10" />
      <path
         d="m 85.609477,165.26964 -4.065621,-7.03872 -4.065267,7.03795 z"
         id="path85"
         inkscape:connector-curvature="0"
         style="opacity:1;vector-effect:none;fill:#ffffff;fill-opacity:1;fill-rule:evenodd;stroke:none;stroke-width:1.46528673;stroke-linecap:butt;stroke-linejoin:miter;stroke-miterlimit:10;stroke-dasharray:none;stroke-dashoffset:0;stroke-opacity:1" />
    </g>
    <path
       style="opacity:1;vector-effect:none;fill:none;fill-opacity:1;stroke:#eeff41;stroke-width:0.45931664;stroke-linecap:butt;stroke-linejoin:miter;stroke-miterlimit:10;stroke-dasharray:none;stroke-dashoffset:0;stroke-opacity:1"
       d="M 243.42206,245.14048 V 141.97445 l 68.15373,-68.153732"
       id="path865"
       inkscape:connector-curvature="0" />
    <path
       inkscape:connector-curvature="0"
       id="path867"
       d="M 396.8804,245.14048 V 141.97445 l 68.15372,-68.153732"
       style="opacity:1;vector-effect:none;fill:none;fill-opacity:1;stroke:#eeff41;stroke-width:0.45931664;stroke-linecap:butt;stroke-linejoin:miter;stroke-miterlimit:10;stroke-dasharray:none;stroke-dashoffset:0;stroke-opacity:1" />
    <path
       style="opacity:1;vector-effect:none;fill:none;fill-opacity:1;stroke:#ff5e38;stroke-width:0.5;stroke-linecap:butt;stroke-linejoin:miter;stroke-miterlimit:4;stroke-dasharray:none;stroke-dashoffset:0;stroke-opacity:1"
       d="m 243.42206,245.14048 3.77437,-29.0274 -8.69346,-21.54464 7.55953,-24.56845 -8.31548,-19.65476 12.47322,-18.14286 17.00893,-10.20536 12.47321,-21.92261 17.76488,-7.937505 14.10853,-18.316177"
       id="path875"
       inkscape:connector-curvature="0" />
    <path
       style="opacity:1;vector-effect:none;fill:none;fill-opacity:1;stroke:#ff5e38;stroke-width:0.5;stroke-linecap:butt;stroke-linejoin:miter;stroke-miterlimit:4;stroke-dasharray:none;stroke-dashoffset:0;stroke-opacity:1"
       d="m 397.57583,245.45837 v -84.66666 c 0,-18.84255 4.7877,-24.44246 13.04018,-32.69494 l 54.41811,-54.276052"
       id="path930"
       inkscape:connector-curvature="0"
       sodipodi:nodetypes="cccc" />
    <path
       style="opacity:1;vector-effect:none;fill:none;fill-opacity:1;stroke:#eeff41;stroke-width:0.45931664;stroke-linecap:butt;stroke-linejoin:miter;stroke-miterlimit:10;stroke-dasharray:none;stroke-dashoffset:0;stroke-opacity:1"
       d="m 266.88149,270.04717 h 24.05425"
       id="path969"
       inkscape:connector-curvature="0" />
    <text
       xml:space="preserve"
       style="font-style:normal;font-variant:normal;font-weight:normal;font-stretch:normal;font-size:8.46666622px;line-height:1.25;font-family:'Source Sans Pro';-inkscape-font-specification:'Source Sans Pro, Normal';font-variant-ligatures:normal;font-variant-caps:normal;font-variant-numeric:normal;font-feature-settings:normal;text-align:start;letter-spacing:0px;word-spacing:0px;writing-mode:lr-tb;text-anchor:start;fill:#ffffff;fill-opacity:1;stroke:none;stroke-width:0.26458332"
       x="301.89383"
       y="272.18533"
       id="text987"><tspan
         sodipodi:role="line"
         id="tspan985"
         x="301.89383"
         y="272.18533"
         style="font-style:normal;font-variant:normal;font-weight:normal;font-stretch:normal;font-size:8.46666622px;font-family:'Source Sans Pro';-inkscape-font-specification:'Source Sans Pro, Normal';font-variant-ligatures:normal;font-variant-caps:normal;font-variant-numeric:normal;font-feature-settings:normal;text-align:start;writing-mode:lr-tb;text-anchor:start;fill:#ffffff;stroke-width:0.26458332">Ideal trajectory calculated by A*</tspan></text>
    <text
       id="text993"
       y="289.02332"
       x="301.89383"
       style="font-style:normal;font-variant:normal;font-weight:normal;font-stretch:normal;font-size:8.46666622px;line-height:1.25;font-family:'Source Sans Pro';-inkscape-font-specification:'Source Sans Pro, Normal';font-variant-ligatures:normal;font-variant-caps:normal;font-variant-numeric:normal;font-feature-settings:normal;text-align:start;letter-spacing:0px;word-spacing:0px;writing-mode:lr-tb;text-anchor:start;fill:#ffffff;fill-opacity:1;stroke:none;stroke-width:0.26458332"
       xml:space="preserve"><tspan
         style="font-style:normal;font-variant:normal;font-weight:normal;font-stretch:normal;font-size:8.46666622px;font-family:'Source Sans Pro';-inkscape-font-specification:'Source Sans Pro, Normal';font-variant-ligatures:normal;font-variant-caps:normal;font-variant-numeric:normal;font-feature-settings:normal;text-align:start;writing-mode:lr-tb;text-anchor:start;fill:#ffffff;stroke-width:0.26458332"
         y="289.02332"
         x="301.89383"
         id="tspan991"
         sodipodi:role="line">Actual trajectory</tspan></text>
    <path
       style="opacity:1;vector-effect:none;fill:none;fill-opacity:1;stroke:#ff5e38;stroke-width:0.5;stroke-linecap:butt;stroke-linejoin:miter;stroke-miterlimit:4;stroke-dasharray:none;stroke-dashoffset:0;stroke-opacity:1"
       d="m 266.88149,286.34044 h 24.05425"
       id="path995"
       inkscape:connector-curvature="0" />
  </g>
</svg>
