<?xml version="1.0" encoding="UTF-8" standalone="no"?>
<svg
   xmlns:dc="http://purl.org/dc/elements/1.1/"
   xmlns:cc="http://creativecommons.org/ns#"
   xmlns:rdf="http://www.w3.org/1999/02/22-rdf-syntax-ns#"
   xmlns:svg="http://www.w3.org/2000/svg"
   xmlns="http://www.w3.org/2000/svg"
   xmlns:sodipodi="http://sodipodi.sourceforge.net/DTD/sodipodi-0.dtd"
   xmlns:inkscape="http://www.inkscape.org/namespaces/inkscape"
   version="1.1"
   viewBox="0 0 500 238.3858"
   stroke-miterlimit="10"
   id="svg145"
   sodipodi:docname="coordinate-frames.svg"
   inkscape:version="0.92.3 (2405546, 2018-03-11)"
   width="500"
   height="238.3858"
   style="fill:none;stroke:none;stroke-linecap:square;stroke-miterlimit:10">
  <metadata
     id="metadata151">
    <rdf:RDF>
      <cc:Work
         rdf:about="">
        <dc:format>image/svg+xml</dc:format>
        <dc:type
           rdf:resource="http://purl.org/dc/dcmitype/StillImage" />
        <dc:title></dc:title>
      </cc:Work>
    </rdf:RDF>
  </metadata>
  <defs
     id="defs149">
    <marker
       inkscape:stockid="StopL"
       orient="auto"
       refY="0"
       refX="0"
       id="marker1589"
       style="overflow:visible"
       inkscape:isstock="true">
      <path
         inkscape:connector-curvature="0"
         id="path1587"
         d="M 0,5.65 V -5.65"
         style="fill:none;fill-opacity:0.75;fill-rule:evenodd;stroke:#ff5e38;stroke-width:1.00000003pt;stroke-opacity:1"
         transform="scale(0.8)" />
    </marker>
    <marker
       inkscape:stockid="StopL"
       orient="auto"
       refY="0"
       refX="0"
       id="marker1585"
       style="overflow:visible"
       inkscape:isstock="true">
      <path
         inkscape:connector-curvature="0"
         id="path1583"
         d="M 0,5.65 V -5.65"
         style="fill:none;fill-opacity:0.75;fill-rule:evenodd;stroke:#ff5e38;stroke-width:1.00000003pt;stroke-opacity:1"
         transform="scale(0.8)" />
    </marker>
    <marker
       inkscape:isstock="true"
       style="overflow:visible"
       id="marker2696"
       refX="0"
       refY="0"
       orient="auto"
       inkscape:stockid="StopL">
      <path
         transform="scale(0.8)"
         style="fill:none;fill-opacity:0.75;fill-rule:evenodd;stroke:#ff5e38;stroke-width:1.00000003pt;stroke-opacity:1"
         d="M 0,5.65 V -5.65"
         id="path2694"
         inkscape:connector-curvature="0" />
    </marker>
    <marker
       inkscape:isstock="true"
       style="overflow:visible"
       id="marker2742"
       refX="0"
       refY="0"
       orient="auto"
       inkscape:stockid="StopL">
      <path
         transform="scale(0.8)"
         style="fill:none;fill-opacity:0.75;fill-rule:evenodd;stroke:#ff5e38;stroke-width:1.00000003pt;stroke-opacity:1"
         d="M 0,5.65 V -5.65"
         id="path2740"
         inkscape:connector-curvature="0" />
    </marker>
    <marker
       inkscape:isstock="true"
       style="overflow:visible"
       id="marker2696-4"
       refX="0"
       refY="0"
       orient="auto"
       inkscape:stockid="StopL"
       inkscape:collect="always">
      <path
         transform="scale(0.8)"
         style="fill:none;fill-opacity:0.75;fill-rule:evenodd;stroke:#ff5e38;stroke-width:1.00000003pt;stroke-opacity:1"
         d="M 0,5.65 V -5.65"
         id="path2694-0"
         inkscape:connector-curvature="0" />
    </marker>
    <marker
       inkscape:isstock="true"
       style="overflow:visible"
       id="marker2742-9"
       refX="0"
       refY="0"
       orient="auto"
       inkscape:stockid="StopL"
       inkscape:collect="always">
      <path
         transform="scale(0.8)"
         style="fill:none;fill-opacity:0.75;fill-rule:evenodd;stroke:#ff5e38;stroke-width:1.00000003pt;stroke-opacity:1"
         d="M 0,5.65 V -5.65"
         id="path2740-1"
         inkscape:connector-curvature="0" />
    </marker>
  </defs>
  <sodipodi:namedview
     pagecolor="#ffffff"
     bordercolor="#666666"
     borderopacity="1"
     objecttolerance="10"
     gridtolerance="10"
     guidetolerance="10"
     inkscape:pageopacity="0"
     inkscape:pageshadow="2"
     inkscape:window-width="1853"
     inkscape:window-height="1025"
     id="namedview147"
     showgrid="false"
     inkscape:zoom="3.05"
     inkscape:cx="402.89879"
     inkscape:cy="194.15043"
     inkscape:window-x="67"
     inkscape:window-y="27"
     inkscape:window-maximized="1"
     inkscape:current-layer="svg145"
     fit-margin-top="0"
     fit-margin-left="0"
     fit-margin-right="0"
     fit-margin-bottom="0" />
  <clipPath
     id="g8bbd3ddbe2_1_101.0">
    <path
       d="M 0,0 H 960 V 540 H 0 Z"
       id="path2"
       inkscape:connector-curvature="0"
       style="clip-rule:nonzero" />
  </clipPath>
  <path
     style="opacity:1;vector-effect:none;fill:none;fill-opacity:1;stroke:#ff5e38;stroke-width:0.94488192;stroke-linecap:butt;stroke-linejoin:round;stroke-miterlimit:4;stroke-dasharray:none;stroke-dashoffset:0;stroke-opacity:1"
     id="path1666"
     sodipodi:type="arc"
     sodipodi:cx="400.20505"
     sodipodi:cy="73.320274"
     sodipodi:rx="35.845493"
     sodipodi:ry="35.845493"
     sodipodi:start="5.7592225"
     sodipodi:end="0.0047378638"
     d="m 431.24163,55.386228 a 35.845493,35.845493 0 0 1 4.80851,18.103877 l -35.84509,-0.169831 z" />
  <path
     style="fill:#000000;fill-opacity:0;fill-rule:evenodd"
     inkscape:connector-curvature="0"
     id="path21"
     d="M 275.13883,26.30385 300.94272,0.5 h 100.04584 l 25.80384,25.80385 v 185.7781 l -25.80384,25.80386 H 300.94272 l -25.80389,-25.80386 z" />
  <path
     style="fill:none;fill-opacity:1;fill-rule:evenodd;stroke:#6e7a94;stroke-width:1;stroke-linecap:butt;stroke-linejoin:round"
     inkscape:connector-curvature="0"
     id="path23"
     d="M 275.13883,26.30385 300.94272,0.5 h 100.04584 l 25.80384,25.80385 v 185.7781 l -25.80384,25.80386 H 300.94272 l -25.80389,-25.80386 z" />
  <path
     style="fill:#000000;fill-opacity:0;fill-rule:evenodd"
     inkscape:connector-curvature="0"
     id="path33"
     d="m 351.37803,128.88734 h 53.70081" />
  <path
     style="fill:#000000;fill-opacity:0;fill-rule:evenodd"
     inkscape:connector-curvature="0"
     id="path39"
     d="M 351.72973,128.88734 V 75.18656" />
  <g
     id="g866">
    <path
       d="m 351.37803,128.88734 h 50.27368"
       id="path35"
       inkscape:connector-curvature="0"
       style="opacity:1;vector-effect:none;fill:#dee3ec;fill-opacity:1;fill-rule:evenodd;stroke:#808080;stroke-width:1;stroke-linecap:butt;stroke-linejoin:miter;stroke-miterlimit:10;stroke-dasharray:none;stroke-dashoffset:0;stroke-opacity:1" />
    <path
       d="m 401.65173,128.88734 -1.12457,1.1246 3.08978,-1.1246 -3.08978,-1.12457 z"
       id="path37"
       inkscape:connector-curvature="0"
       style="opacity:1;vector-effect:none;fill:#dee3ec;fill-opacity:1;fill-rule:evenodd;stroke:#808080;stroke-width:1;stroke-linecap:butt;stroke-linejoin:miter;stroke-miterlimit:10;stroke-dasharray:none;stroke-dashoffset:0;stroke-opacity:1" />
    <path
       d="M 351.72973,128.88734 V 78.613663"
       id="path41"
       inkscape:connector-curvature="0"
       style="opacity:1;vector-effect:none;fill:#dee3ec;fill-opacity:1;fill-rule:evenodd;stroke:#808080;stroke-width:1;stroke-linecap:butt;stroke-linejoin:miter;stroke-miterlimit:10;stroke-dasharray:none;stroke-dashoffset:0;stroke-opacity:1" />
    <path
       d="m 351.72973,78.613673 1.12463,1.12457 -1.12463,-3.08975 -1.12457,3.08975 z"
       id="path43"
       inkscape:connector-curvature="0"
       style="opacity:1;vector-effect:none;fill:#dee3ec;fill-opacity:1;fill-rule:evenodd;stroke:#808080;stroke-width:1;stroke-linecap:butt;stroke-linejoin:miter;stroke-miterlimit:10;stroke-dasharray:none;stroke-dashoffset:0;stroke-opacity:1" />
  </g>
  <path
     style="fill:#000000;fill-opacity:0;fill-rule:evenodd"
     inkscape:connector-curvature="0"
     id="path57"
     d="m 389.19673,109.67587 h 53.70081 v 38.42517 h -53.70081 z" />
  <path
     style="opacity:1;vector-effect:none;fill:#808080;fill-opacity:1;fill-rule:nonzero;stroke:none;stroke-width:1;stroke-linecap:butt;stroke-linejoin:miter;stroke-miterlimit:10;stroke-dasharray:none;stroke-dashoffset:0;stroke-opacity:1"
     inkscape:connector-curvature="0"
     id="path59"
     d="m 411.91198,134.03584 3.48437,-4.125 -1.45312,-3.65625 h 1.25 l 0.67187,1.73437 q 0.125,0.34375 0.21875,0.65625 0.10938,0.3125 0.25,0.65625 h 0.0625 q 0.23438,-0.32812 0.48438,-0.65625 0.26562,-0.32812 0.5,-0.65625 l 1.35937,-1.73437 h 1.32813 l -3.20313,3.92187 1.59375,3.85938 h -1.26562 l -0.70313,-1.82813 q -0.125,-0.34375 -0.26562,-0.70312 -0.14063,-0.35938 -0.29688,-0.73438 h -0.0625 q -0.26562,0.375 -0.53125,0.71875 -0.26562,0.34375 -0.57812,0.70313 l -1.5,1.84375 z" />
  <path
     style="fill:#000000;fill-opacity:0;fill-rule:evenodd"
     inkscape:connector-curvature="0"
     id="path61"
     d="m 324.87913,42.04855 h 53.70081 v 38.425193 h -53.70081 z" />
  <path
     style="opacity:1;vector-effect:none;fill:#808080;fill-opacity:1;fill-rule:nonzero;stroke:none;stroke-width:1;stroke-linecap:butt;stroke-linejoin:miter;stroke-miterlimit:10;stroke-dasharray:none;stroke-dashoffset:0;stroke-opacity:1"
     inkscape:connector-curvature="0"
     id="path63"
     d="m 348.05173,69.7523 q -0.17188,0 -0.42188,-0.0469 -0.25,-0.0469 -0.46875,-0.17187 l 0.39063,-0.92188 q 0.29687,0.15625 0.57812,0.15625 0.59375,0 1.10938,-0.48437 0.51562,-0.48438 0.92187,-1.29688 l 0.28125,-0.5625 -1.32812,-7.79687 h 1.21875 l 0.60937,4.375 q 0.0781,0.53125 0.14063,1.15625 0.0781,0.60937 0.125,1.15625 h 0.0625 q 0.26562,-0.54688 0.5625,-1.14063 0.29687,-0.60937 0.57812,-1.17187 l 2.25,-4.375 h 1.21875 l -4.57812,8.4375 q -0.3125,0.57812 -0.65625,1.0625 -0.32813,0.48437 -0.71875,0.84375 -0.39063,0.35937 -0.85938,0.5625 -0.45312,0.21875 -1.01562,0.21875 z" />
  <g
     id="g883"
     transform="translate(28.852458,27.213115)">
    <path
       d="m 367.29073,55.54607 v 0 c -0.38287,0.22107 -0.8725,0.0898 -1.09351,-0.29309 l -5.4104,-9.37375 c -0.10614,-0.18387 -0.13488,-0.4024 -0.08,-0.60751 0.055,-0.20511 0.18915,-0.37998 0.37304,-0.48612 l 2.7732,-1.6011 c 0.38287,-0.22107 0.8725,-0.0899 1.0935,0.29309 l 5.4104,9.37372 v 0 c 0.22101,0.38293 0.0898,0.87259 -0.29309,1.09365 z"
       id="path79"
       inkscape:connector-curvature="0"
       style="opacity:1;vector-effect:none;fill:#696969;fill-opacity:1;fill-rule:evenodd;stroke:none;stroke-width:1;stroke-linecap:butt;stroke-linejoin:miter;stroke-miterlimit:10;stroke-dasharray:none;stroke-dashoffset:0;stroke-opacity:1" />
    <path
       d="m 378.94658,48.81651 v 0 c -0.38287,0.22107 -0.87244,0.0898 -1.09351,-0.29309 l -5.4104,-9.37373 c -0.10614,-0.1839 -0.13488,-0.40242 -0.0799,-0.60753 0.0549,-0.2051 0.18915,-0.37996 0.37298,-0.48612 l 2.7732,-1.6011 c 0.38293,-0.22107 0.8725,-0.0899 1.0935,0.29307 l 5.4104,9.37374 v 0 c 0.22107,0.38293 0.0898,0.87259 -0.29309,1.09366 z"
       id="path81"
       inkscape:connector-curvature="0"
       style="opacity:1;vector-effect:none;fill:#696969;fill-opacity:1;fill-rule:evenodd;stroke:none;stroke-width:1;stroke-linecap:butt;stroke-linejoin:miter;stroke-miterlimit:10;stroke-dasharray:none;stroke-dashoffset:0;stroke-opacity:1" />
    <path
       d="m 364.56829,56.44757 -5.62854,-9.75165 18.7478,-10.82408 5.62854,9.75166 z"
       id="path83"
       inkscape:connector-curvature="0"
       style="fill:#26a6a6;fill-rule:evenodd" />
    <path
       d="m 377.72923,45.54787 2.77277,-4.80472 -5.54682,-10e-4 z"
       id="path85"
       inkscape:connector-curvature="0"
       style="opacity:1;vector-effect:none;fill:#ffffff;fill-opacity:1;fill-rule:evenodd;stroke:none;stroke-width:1;stroke-linecap:butt;stroke-linejoin:miter;stroke-miterlimit:10;stroke-dasharray:none;stroke-dashoffset:0;stroke-opacity:1" />
    <path
       d="m 373.25158,45.2653 9.9527,-17.25984"
       id="path87"
       inkscape:connector-curvature="0"
       style="fill:#000000;fill-opacity:0;fill-rule:evenodd" />
  </g>
  <path
     style="fill:none;stroke:#ff5e38;stroke-width:0.94488189;stroke-linecap:butt;stroke-linejoin:miter;stroke-miterlimit:4;stroke-dasharray:none;stroke-opacity:1;marker-start:url(#marker2696-4);marker-end:url(#marker2742-9)"
     d="M 327.61855,128.88734 V 75.18656"
     id="path2692"
     inkscape:connector-curvature="0"
     sodipodi:nodetypes="cc" />
  <path
     sodipodi:nodetypes="cc"
     inkscape:connector-curvature="0"
     id="path1581"
     d="m 351.72973,144.95291 49.11062,0"
     style="fill:none;stroke:#ff5e38;stroke-width:0.94488192;stroke-linecap:butt;stroke-linejoin:miter;stroke-miterlimit:4;stroke-dasharray:none;stroke-opacity:1;marker-start:url(#marker1585);marker-end:url(#marker1589)" />
  <g
     id="g896"
     transform="translate(81.967212,7.5409835)">
    <g
       transform="rotate(-30,217.22255,159.83005)"
       id="g876">
      <path
         d="m 351.37803,128.88734 h 50.27368"
         id="path868"
         inkscape:connector-curvature="0"
         style="opacity:1;vector-effect:none;fill:#dee3ec;fill-opacity:1;fill-rule:evenodd;stroke:#808080;stroke-width:1;stroke-linecap:butt;stroke-linejoin:miter;stroke-miterlimit:10;stroke-dasharray:none;stroke-dashoffset:0;stroke-opacity:1" />
      <path
         d="m 401.65173,128.88734 -1.12457,1.1246 3.08978,-1.1246 -3.08978,-1.12457 z"
         id="path870"
         inkscape:connector-curvature="0"
         style="opacity:1;vector-effect:none;fill:#dee3ec;fill-opacity:1;fill-rule:evenodd;stroke:#808080;stroke-width:1;stroke-linecap:butt;stroke-linejoin:miter;stroke-miterlimit:10;stroke-dasharray:none;stroke-dashoffset:0;stroke-opacity:1" />
      <path
         d="M 351.72973,128.88734 V 78.613663"
         id="path872"
         inkscape:connector-curvature="0"
         style="opacity:1;vector-effect:none;fill:#dee3ec;fill-opacity:1;fill-rule:evenodd;stroke:#808080;stroke-width:1;stroke-linecap:butt;stroke-linejoin:miter;stroke-miterlimit:10;stroke-dasharray:none;stroke-dashoffset:0;stroke-opacity:1" />
      <path
         d="m 351.72973,78.613673 1.12463,1.12457 -1.12463,-3.08975 -1.12457,3.08975 z"
         id="path874"
         inkscape:connector-curvature="0"
         style="opacity:1;vector-effect:none;fill:#dee3ec;fill-opacity:1;fill-rule:evenodd;stroke:#808080;stroke-width:1;stroke-linecap:butt;stroke-linejoin:miter;stroke-miterlimit:10;stroke-dasharray:none;stroke-dashoffset:0;stroke-opacity:1" />
    </g>
    <path
       style="opacity:1;vector-effect:none;fill:#808080;fill-opacity:1;fill-rule:nonzero;stroke:none;stroke-width:1;stroke-linecap:butt;stroke-linejoin:miter;stroke-miterlimit:10;stroke-dasharray:none;stroke-dashoffset:0;stroke-opacity:1"
       inkscape:connector-curvature="0"
       id="path885"
       d="m 298.8714,22.867054 q -0.17188,0 -0.42188,-0.0469 -0.25,-0.0469 -0.46875,-0.17187 l 0.39063,-0.92188 q 0.29687,0.15625 0.57812,0.15625 0.59375,0 1.10938,-0.48437 0.51562,-0.48438 0.92187,-1.29688 l 0.28125,-0.5625 -1.32812,-7.79687 h 1.21875 l 0.60937,4.375 q 0.0781,0.53125 0.14063,1.15625 0.0781,0.60937 0.125,1.15625 h 0.0625 q 0.26562,-0.54688 0.5625,-1.14063 0.29687,-0.60937 0.57812,-1.17187 l 2.25,-4.375 h 1.21875 l -4.57812,8.4375 q -0.3125,0.57812 -0.65625,1.0625 -0.32813,0.48437 -0.71875,0.84375 -0.39063,0.35937 -0.85938,0.5625 -0.45312,0.21875 -1.01562,0.21875 z" />
    <path
       style="opacity:1;vector-effect:none;fill:#808080;fill-opacity:1;fill-rule:nonzero;stroke:none;stroke-width:1;stroke-linecap:butt;stroke-linejoin:miter;stroke-miterlimit:10;stroke-dasharray:none;stroke-dashoffset:0;stroke-opacity:1"
       inkscape:connector-curvature="0"
       id="path887"
       d="m 365.68247,42.232562 3.48437,-4.125 -1.45312,-3.65625 h 1.25 l 0.67187,1.73437 q 0.125,0.34375 0.21875,0.65625 0.10938,0.3125 0.25,0.65625 h 0.0625 q 0.23438,-0.32812 0.48438,-0.65625 0.26562,-0.32812 0.5,-0.65625 l 1.35937,-1.73437 h 1.32813 l -3.20313,3.92187 1.59375,3.85938 h -1.26562 l -0.70313,-1.82813 q -0.125,-0.34375 -0.26562,-0.70312 -0.14063,-0.35938 -0.29688,-0.73438 h -0.0625 q -0.26562,0.375 -0.53125,0.71875 -0.26562,0.34375 -0.57812,0.70313 l -1.5,1.84375 z" />
  </g>
  <text
     id="text5702"
     y="105.3601"
     x="307.05933"
     style="font-style:normal;font-variant:normal;font-weight:normal;font-stretch:normal;font-size:24px;line-height:1.25;font-family:'Latin Modern Math';-inkscape-font-specification:'Latin Modern Math, Normal';font-variant-ligatures:normal;font-variant-caps:normal;font-variant-numeric:normal;font-feature-settings:normal;text-align:start;letter-spacing:0px;word-spacing:0px;writing-mode:lr-tb;text-anchor:start;fill:#ff5e38;fill-opacity:1;stroke:none;stroke-width:0.99999994"
     xml:space="preserve"><tspan
       style="font-style:italic;font-variant:normal;font-weight:normal;font-stretch:normal;font-size:24px;font-family:'Latin Modern Math';-inkscape-font-specification:'Latin Modern Math, Normal';font-variant-ligatures:normal;font-variant-caps:normal;font-variant-numeric:normal;font-feature-settings:normal;text-align:start;writing-mode:lr-tb;text-anchor:start;fill:#ff5e38;fill-opacity:1;stroke-width:0.99999994"
       y="105.3601"
       x="307.05933"
       id="tspan5700"
       sodipodi:role="line">t<tspan
   style="font-size:65%;baseline-shift:sub"
   id="tspan1684">y</tspan></tspan></text>
  <text
     xml:space="preserve"
     style="font-style:normal;font-variant:normal;font-weight:normal;font-stretch:normal;font-size:24px;line-height:1.25;font-family:'Latin Modern Math';-inkscape-font-specification:'Latin Modern Math, Normal';font-variant-ligatures:normal;font-variant-caps:normal;font-variant-numeric:normal;font-feature-settings:normal;text-align:start;letter-spacing:0px;word-spacing:0px;writing-mode:lr-tb;text-anchor:start;fill:#ff5e38;fill-opacity:1;stroke:none;stroke-width:0.99999994"
     x="369.56931"
     y="162.90207"
     id="text5698"><tspan
       sodipodi:role="line"
       id="tspan5696"
       x="369.56931"
       y="162.90207"
       style="font-style:italic;font-variant:normal;font-weight:normal;font-stretch:normal;font-size:24px;font-family:'Latin Modern Math';-inkscape-font-specification:'Latin Modern Math, Normal';font-variant-ligatures:normal;font-variant-caps:normal;font-variant-numeric:normal;font-feature-settings:normal;text-align:start;writing-mode:lr-tb;text-anchor:start;fill:#ff5e38;fill-opacity:1;stroke-width:0.99999994">t<tspan
   style="font-size:64.99999762%;baseline-shift:sub"
   id="tspan1682">x</tspan></tspan></text>
  <text
     xml:space="preserve"
     style="font-style:normal;font-variant:normal;font-weight:normal;font-stretch:normal;font-size:24px;line-height:1.25;font-family:'Latin Modern Math';-inkscape-font-specification:'Latin Modern Math, Normal';font-variant-ligatures:normal;font-variant-caps:normal;font-variant-numeric:normal;font-feature-settings:normal;text-align:start;letter-spacing:0px;word-spacing:0px;writing-mode:lr-tb;text-anchor:start;fill:#ff5e38;fill-opacity:1;stroke:none;stroke-width:0.99999994"
     x="437.48563"
     y="74.767899"
     id="text1778"><tspan
       sodipodi:role="line"
       id="tspan1776"
       x="437.48563"
       y="74.767899"
       style="font-style:italic;font-variant:normal;font-weight:normal;font-stretch:normal;font-size:24px;font-family:'Latin Modern Math';-inkscape-font-specification:'Latin Modern Math, Normal';font-variant-ligatures:normal;font-variant-caps:normal;font-variant-numeric:normal;font-feature-settings:normal;text-align:start;writing-mode:lr-tb;text-anchor:start;fill:#ff5e38;fill-opacity:1;stroke-width:0.99999994">θ</tspan></text>
</svg>
